/* XPM */
static char *result[] = {
/* columns rows colors chars-per-pixel */
"64 64 179 2 ",
"   c #732B00",
".  c #722A00",
"X  c #732C00",
"o  c #722900",
"O  c #712700",
"+  c #540100",
"@  c #5D0601",
"#  c #F67F17",
"$  c #FF8618",
"%  c #FD8317",
"&  c #FE8417",
"*  c #FF8518",
"=  c #F78116",
"-  c #B54802",
";  c #AB4100",
":  c #762C00",
">  c #F88216",
",  c #B44802",
"<  c #AE4300",
"1  c #742D00",
"2  c #6F2200",
"3  c #650C00",
"4  c #660D00",
"5  c #670E00",
"6  c #5C0300",
"7  c #5C0602",
"8  c #F57E16",
"9  c #F77204",
"0  c #F36D02",
"q  c #F46E02",
"w  c #F36E02",
"e  c #F56F02",
"r  c #D85D00",
"t  c #AB4200",
"y  c #F67002",
"u  c #D75C00",
"i  c #AE4400",
"p  c #640900",
"a  c #640A00",
"s  c #650B00",
"d  c #650A00",
"f  c #640700",
"g  c #5A0000",
"h  c #4B0702",
"j  c #F47D16",
"k  c #F26C00",
"l  c #F36D00",
"z  c #F36C00",
"x  c #E96700",
"c  c #E36400",
"v  c #A63E00",
"b  c #742B00",
"n  c #E26300",
"m  c #A83F00",
"M  c #630800",
"N  c #600100",
"B  c #590000",
"V  c #4A0702",
"C  c #F77002",
"Z  c #E86700",
"A  c #E46400",
"S  c #E16300",
"D  c #A43E00",
"F  c #742A00",
"G  c #732D00",
"H  c #E56500",
"J  c #E06200",
"K  c #630700",
"L  c #5E0000",
"P  c #600000",
"I  c #E66500",
"U  c #A43D00",
"Y  c #752C00",
"T  c #6E2100",
"R  c #E66600",
"E  c #A73F00",
"W  c #742900",
"Q  c #5F0000",
"!  c #732900",
"~  c #560000",
"^  c #490702",
"/  c #D35A00",
"(  c #A23D00",
")  c #D25900",
"_  c #5D0000",
"`  c #4D0000",
"'  c #DD6000",
"]  c #CE5700",
"[  c #CD5600",
"{  c #5C0000",
"}  c #DA5F00",
"|  c #D05800",
" . c #CF5700",
".. c #540000",
"X. c #4E0000",
"o. c #DB5F00",
"O. c #D65C00",
"+. c #D95E00",
"@. c #DA5E00",
"#. c #CD5500",
"$. c #D95D00",
"%. c #CB5500",
"&. c #A53D00",
"*. c #550000",
"=. c #4A0000",
"-. c #D85C00",
";. c #C85300",
":. c #C75200",
">. c #500100",
",. c #4B0000",
"<. c #ED7B15",
"1. c #F87102",
"2. c #E86600",
"3. c #CA5400",
"4. c #A33D00",
"5. c #732800",
"6. c #640800",
"7. c #A53E00",
"8. c #590300",
"9. c #490000",
"0. c #430200",
"q. c #AF4402",
"w. c #E36300",
"e. c #CC5500",
"r. c #C95400",
"t. c #A23B00",
"y. c #570400",
"u. c #580200",
"i. c #5B0602",
"p. c #4A0700",
"a. c #A63F00",
"s. c #AD4300",
"d. c #A33B00",
"f. c #9C3700",
"g. c #600901",
"h. c #5A0502",
"j. c #A13A00",
"k. c #A03900",
"l. c #7A2E00",
"z. c #752B00",
"x. c #EE7916",
"c. c #F88017",
"v. c #F37D16",
"b. c #722700",
"n. c #590600",
"m. c #712A00",
"M. c #660E00",
"N. c #5B0200",
"B. c #F97404",
"V. c #F66F02",
"C. c #5D0400",
"Z. c #510000",
"A. c #4C0702",
"S. c #F16B00",
"D. c #5D0100",
"F. c #420000",
"G. c #400000",
"H. c #3F0000",
"J. c #500000",
"K. c #FD8417",
"L. c #530000",
"P. c #4F0000",
"I. c #3D0000",
"U. c #480702",
"Y. c #450300",
"T. c #440300",
"R. c #EE7B15",
"E. c #AE4401",
"W. c #A93F00",
"Q. c #F97102",
"!. c #B04500",
"~. c #E96600",
"^. c #E16200",
"/. c #F78216",
"(. c #5A0600",
"). c #5B0400",
"_. c #4C0000",
"`. c #410000",
"'. c white",
/* pixels */
"      . X o o o o o o o o O + @ # $ % & & & & & & & & & * = - ; : .   . X o o o o o o o o O + @ # $ % & & & & & & & & & * > , < ",
"    . 1 2 3 4 4 4 4 4 4 3 5 6 7 8 9 0 q w w w w w w w w w e r t : . . 1 2 3 4 4 4 4 4 4 3 5 6 7 8 9 0 q w w w w w w w w w y u i ",
"  . 1 2 p a s d d d d a s f g h j y k l l l l l l l k k z x c v b . 1 2 p a s d d d d a s f g h j y k l l l l l l l k k z x n m ",
". 1 2 a a s s s s s a s M N B V j C k l l l l l l l l l Z A S D F G 2 a a s s s s s a s M N B V j C k l l l l l l l l l Z H J v ",
"X 2 p a s s s s s a s K L P g V j C k l l l l l l l l Z c I n U Y T a a s s s s s a s K L P g V j C k l l l l l l l l Z c R J E ",
"o 3 a s s s s s s s K L L N B V j C k l l l l l l l x c H I n D W s a s s s s s s s K L L N B V j C k l l l l l l l x c H R J E ",
"o 4 s s s s s s s M L L Q P g h j C k l l l l l l Z c H H H n D ! 3 s s s s s s s M L L Q P g h j C k l l l l l l Z c H H I J v ",
"o 4 d s s s s s M L L Q Q P ~ ^ j y k l l l l l Z c H H A I / ( F 3 s s s s s s M L L Q Q P ~ ^ j y k l l l l l Z c H H A R ) U ",
"o 4 d s s s s M L Q Q Q Q _ ` ^ j y k l l l l Z A H H H A ' ] ( F 3 s s s s s M L Q Q Q Q _ ` ^ j y k l l l l Z A H H H A ' [ U ",
"o 4 d s a s M L Q Q L Q { ~ ` ^ j y k l l l Z c H H H H } r | ( F 3 s s a s M L Q Q L Q { ~ ` ^ j y k l l l Z c H H H H } r  .U ",
"o 4 d a s M L L Q L Q { ..~ X.^ j C k l l x c H H H H o.O.+.| ( F 3 d a s M L L Q L Q { ..~ X.^ j C k l l x c H H H H o.O.@. .U ",
"o 4 a s K L L Q Q Q { ....~ ` ^ j y k l Z c H H H H o.O.r r #.( W 3 a s K L L Q Q Q { ....~ ` ^ j y k l Z c H H H H o.O.r $.%.&.",
"o 3 s M L L Q Q Q { ....*...=.^ 8 y k Z c H H A A } O.r -.] ;.D F 3 s M L L Q Q Q { ....*...=.^ 8 y k Z c H H A A } O.r -. .:.v ",
"O 5 f N P N P P _ ~ ~ ~ ..>.,.^ <.1.2.A I I I I ' r +.r ] 3.3.4.5.5 6.N P N P P _ ~ ~ ~ ..>.,.^ <.1.2.A I I I I ' r +.r ] 3.;.7.",
"+ 8.g B g B g ~ ` ` X.` =.,.9.0.q.o.w.S n n n / ] | | e.;.3.r.t.y.u.g B g B g ~ ` ` X.` =.,.9.0.q.o.w.S n n n / ] | | e.;.3.:.E ",
"@ i.h V V V h ^ ^ ^ ^ ^ ^ ^ 0.p.a.s.7.D U D D ( ( ( ( ( D 4.d.f.g.h.h V V V h ^ ^ ^ ^ ^ ^ ^ 0.p.a.s.7.D U D D ( ( ( ( ( D 4.j.k.",
"# 8 j j j j j j j j j j 8 <.q.a.l.z.b F Y W ! F F F F W F 5.y.g.x.c.v.j j j j j j j j j 8 <.q.a.l.z.b F Y W ! F F F F W F b.n.u.",
"$ 9 y C C C C y y y C y y 1.o.s.z.m.. G T s 3 3 3 3 3 3 3 M.N.i.c.B.V.C C C C y y y C y y 1.o.s.z.m.. G T s 3 3 3 3 3 3 3 4 C.Z.",
"% 0 k k k k k k k k k k k 2.w.7.b . 1 2 a a s s s s d a s 6.g A.v.V.S.k k k k k k k k k k 2.w.7.b . 1 2 a a s s s s d a s K D.F.",
"& q l l l l l l l l l l Z A S D F G 2 a a s s s s s a s M N B V j C k l l l l l l l l l Z A S D F G 2 a a s s s s s a s M Q { G.",
"& w l l l l l l l l l Z c I n U Y T a a s s s s s a s K L P g V j C k l l l l l l l l Z c I n U Y T a a s s s s s a s K L Q { G.",
"& w l l l l l l l l x c H I n D W s a s s s s s s s K L L N B V j C k l l l l l l l x c H I n D W s a s s s s s s s K L L P { G.",
"& w l l l l l l l Z c H H H n D ! 3 s s s s s s s M L L Q P g h j C k l l l l l l Z c H H H n D ! 3 s s s s s s s M L L Q Q _ G.",
"& w l l l l l l Z c H H A I / ( F 3 s s s s s s M L L Q Q P ~ ^ j y k l l l l l Z c H H A I / ( F 3 s s s s s s M L L Q Q P B H.",
"& w l l l l l Z A H H H A ' ] ( F 3 s s s s s M L Q Q Q Q _ ` ^ j y k l l l l Z A H H H A ' ] ( F 3 s s s s s M L Q Q Q Q _ J.H.",
"& w l l l l Z c H H H H } r | ( F 3 s s a s M L Q Q L Q { ~ ` ^ j y k l l l Z c H H H H } r | ( F 3 s s a s M L Q Q L Q { *.J.H.",
"& w k l l x c H H H H o.O.+.| ( F 3 d a s M L L Q L Q { ..~ X.^ j C k l l x c H H H H o.O.+.| ( F 3 d a s M L L Q L Q { ..*.J.H.",
"K.w k l Z c H H H H o.O.r r #.( W 3 a s K L L Q Q Q { ....~ ` ^ j y k l Z c H H H H o.O.r r #.( W 3 a s K L L Q Q Q { ....*.J.H.",
"* w z Z c H H A A } O.r -.] ;.D F 3 s M L L Q Q Q { ....*...=.^ 8 y k Z c H H A A } O.r -.] ;.D F 3 s M L L Q Q Q { ....*.L.` H.",
"= e x A I I I I ' r +.r ] 3.3.4.5.5 6.N P N P P _ ~ ~ ~ ..>.,.^ <.1.2.A I I I I ' r +.r ] 3.3.4.5.5 6.N P N P P _ ~ ~ ~ ..P.X.G.",
"- r c S n n n / ] | | e.;.3.r.t.y.u.g B g B g ~ ` ` X.` =.,.9.0.q.o.w.S n n n / ] | | e.;.3.r.t.y.u.g B g B g ~ ` ` X.` =.,.,.I.",
"; t v D U D D ( ( ( ( ( D 4.d.f.g.h.h V V V h ^ ^ ^ ^ ^ ^ ^ 0.p.a.s.7.D U D D ( ( ( ( ( D 4.d.f.g.h.h V V V h ^ ^ ^ ^ ^ ^ U.Y.T.",
": : b F Y W ! F F F F W F 5.y.g.x.c.v.j j j j j j j j j 8 <.q.a.l.z.b F Y W ! F F F F W F 5.y.g.x.c.v.j j j j j j j j j 8 R.E.W.",
". . . G T s 3 3 3 3 3 3 3 M.N.i.c.B.V.C C C C y y y C y y 1.o.s.z.m.. G T s 3 3 3 3 3 3 3 M.N.i.c.B.V.C C C C y y y C y y Q.+.!.",
"  . 1 2 a a s s s s d a s 6.g A.v.V.S.k k k k k k k k k k 2.w.7.b . 1 2 a a s s s s d a s 6.g A.v.V.S.k k k k k k k k k k ~.^.m ",
". 1 2 a a s s s s s a s M N B V j C k l l l l l l l l l Z A S D F G 2 a a s s s s s a s M N B V j C k l l l l l l l l l Z H J v ",
"X 2 p a s s s s s a s K L P g V j C k l l l l l l l l Z c I n U Y T a a s s s s s a s K L P g V j C k l l l l l l l l Z c R J E ",
"o 3 a s s s s s s s K L L N B V j C k l l l l l l l x c H I n D W s a s s s s s s s K L L N B V j C k l l l l l l l x c H R J E ",
"o 4 s s s s s s s M L L Q P g h j C k l l l l l l Z c H H H n D ! 3 s s s s s s s M L L Q P g h j C k l l l l l l Z c H H I J v ",
"o 4 d s s s s s M L L Q Q P ~ ^ j y k l l l l l Z c H H A I / ( F 3 s s s s s s M L L Q Q P ~ ^ j y k l l l l l Z c H H A R ) U ",
"o 4 d s s s s M L Q Q Q Q _ ` ^ j y k l l l l Z A H H H A ' ] ( F 3 s s s s s M L Q Q Q Q _ ` ^ j y k l l l l Z A H H H A ' [ U ",
"o 4 d s a s M L Q Q L Q { ~ ` ^ j y k l l l Z c H H H H } r | ( F 3 s s a s M L Q Q L Q { ~ ` ^ j y k l l l Z c H H H H } r  .U ",
"o 4 d a s M L L Q L Q { ..~ X.^ j C k l l x c H H H H o.O.+.| ( F 3 d a s M L L Q L Q { ..~ X.^ j C k l l x c H H H H o.O.@. .U ",
"o 4 a s K L L Q Q Q { ....~ ` ^ j y k l Z c H H H H o.O.r r #.( W 3 a s K L L Q Q Q { ....~ ` ^ j y k l Z c H H H H o.O.r $.%.&.",
"o 3 s M L L Q Q Q { ....*...=.^ 8 y k Z c H H A A } O.r -.] ;.D F 3 s M L L Q Q Q { ....*...=.^ 8 y k Z c H H A A } O.r -. .:.v ",
"O 5 f N P N P P _ ~ ~ ~ ..>.,.^ <.1.2.A I I I I ' r +.r ] 3.3.4.5.5 6.N P N P P _ ~ ~ ~ ..>.,.^ <.1.2.A I I I I ' r +.r ] 3.;.7.",
"+ 8.g B g B g ~ ` ` X.` =.,.9.0.q.o.w.S n n n / ] | | e.;.3.r.t.y.u.g B g B g ~ ` ` X.` =.,.9.0.q.o.w.S n n n / ] | | e.;.3.:.E ",
"@ i.h V V V h ^ ^ ^ ^ ^ ^ ^ 0.p.a.s.7.D U D D ( ( ( ( ( D 4.d.f.g.h.h V V V h ^ ^ ^ ^ ^ ^ ^ 0.p.a.s.7.D U D D ( ( ( ( ( D 4.j.k.",
"# 8 j j j j j j j j j j 8 <.q.a.l.z.b F Y W ! F F F F W F 5.y.g.x.c.v.j j j j j j j j j 8 <.q.a.l.z.b F Y W ! F F F F W F b.n.u.",
"$ 9 y C C C C y y y C y y 1.o.s.z.m.. G T s 3 3 3 3 3 3 3 M.N.i.c.B.V.C C C C y y y C y y 1.o.s.z.m.. G T s 3 3 3 3 3 3 3 4 C.Z.",
"% 0 k k k k k k k k k k k 2.w.7.b . 1 2 a a s s s s d a s 6.g A.v.V.S.k k k k k k k k k k 2.w.7.b . 1 2 a a s s s s d a s K D.F.",
"& q l l l l l l l l l l Z A S D F G 2 a a s s s s s a s M N B V j C k l l l l l l l l l Z A S D F G 2 a a s s s s s a s M Q { G.",
"& w l l l l l l l l l Z c I n U Y T a a s s s s s a s K L P g V j C k l l l l l l l l Z c I n U Y T a a s s s s s a s K L Q { G.",
"& w l l l l l l l l x c H I n D W s a s s s s s s s K L L N B V j C k l l l l l l l x c H I n D W s a s s s s s s s K L L P { G.",
"& w l l l l l l l Z c H H H n D ! 3 s s s s s s s M L L Q P g h j C k l l l l l l Z c H H H n D ! 3 s s s s s s s M L L Q Q _ G.",
"& w l l l l l l Z c H H A I / ( F 3 s s s s s s M L L Q Q P ~ ^ j y k l l l l l Z c H H A I / ( F 3 s s s s s s M L L Q Q P B H.",
"& w l l l l l Z A H H H A ' ] ( F 3 s s s s s M L Q Q Q Q _ ` ^ j y k l l l l Z A H H H A ' ] ( F 3 s s s s s M L Q Q Q Q _ J.H.",
"& w l l l l Z c H H H H } r | ( F 3 s s a s M L Q Q L Q { ~ ` ^ j y k l l l Z c H H H H } r | ( F 3 s s a s M L Q Q L Q { *.J.H.",
"& w k l l x c H H H H o.O.+.| ( F 3 d a s M L L Q L Q { ..~ X.^ j C k l l x c H H H H o.O.+.| ( F 3 d a s M L L Q L Q { ..*.J.H.",
"K.w k l Z c H H H H o.O.r r #.( W 3 a s K L L Q Q Q { ....~ ` ^ j y k l Z c H H H H o.O.r r #.( W 3 a s K L L Q Q Q { ....*.J.H.",
"* w z Z c H H A A } O.r -.] ;.D F 3 s M L L Q Q Q { ....*...=.^ 8 y k Z c H H A A } O.r -.] ;.D F 3 s M L L Q Q Q { ....*.L.` H.",
"/.y x H R R I R ' r @.$.] 3.3.4.b.4 f Q Q P Q P _ *.*.*.L.P.,.U.<.Q.~.H R R I R ' r @.$.] 3.3.4.b.4 f Q Q P Q P _ *.*.*.L.P.` H.",
", u n J J J J ) [  . .%.:.;.:.j.(.)._ { { { _ B J.J.J.J.` X.,.Y.E.+.^.J J J J ) [  . .%.:.;.:.j.(.)._ { { { _ B J.J.J.J.` ` _.H.",
"< i m v E E v U U U U &.v 7.E k.u.Z.`.G.G.G.G.H.H.H.H.H.H.G.I.T.W.!.m v E E v U U U U &.v 7.E k.u.Z.`.G.G.G.G.H.H.H.H.H.H.H.H.H."
};
