/* XPM */
static char *result[] = {
/* columns rows colors chars-per-pixel */
"64 64 224 2 ",
"   c #3D0000",
".  c #430000",
"X  c #4C0000",
"o  c #4D0906",
"O  c #540000",
"+  c #5D0000",
"@  c #59080B",
"#  c #4C0D13",
"$  c #5A0D13",
"%  c #5A151B",
"&  c #640300",
"*  c #6B0200",
"=  c #690B06",
"-  c #740201",
";  c #6F1A01",
":  c #721407",
">  c #610A12",
",  c #691917",
"<  c #742400",
"1  c #762900",
"2  c #792B06",
"3  c #6D2515",
"4  c #4F1728",
"5  c #531523",
"6  c #5B1B25",
"7  c #511B2D",
"8  c #531F30",
"9  c #611D22",
"0  c #57202D",
"q  c #5B2633",
"w  c #5D2934",
"e  c #662527",
"r  c #782F21",
"t  c #7C3222",
"y  c #76322A",
"u  c #632C35",
"i  c #663036",
"p  c #6D3537",
"a  c #663239",
"s  c #693539",
"d  c #753A36",
"f  c #753D3A",
"g  c #7B433D",
"h  c #784340",
"j  c #840301",
"k  c #940100",
"l  c #9B0202",
"z  c #811A0C",
"x  c #A10000",
"c  c #A80200",
"v  c #B60000",
"b  c #BB0100",
"n  c #B80D00",
"m  c #BF1500",
"M  c #8A2B19",
"N  c #943A13",
"B  c #A23600",
"V  c #A83000",
"C  c #A53B00",
"Z  c #A93D00",
"A  c #823A2C",
"S  c #C50000",
"D  c #CB0000",
"F  c #C00A01",
"G  c #D60000",
"H  c #DA0000",
"J  c #DD0C00",
"K  c #C31C00",
"L  c #E50000",
"P  c #E80100",
"I  c #E01700",
"U  c #D33301",
"Y  c #E73C00",
"T  c #9B441C",
"R  c #AE4100",
"E  c #B44500",
"W  c #AB4812",
"Q  c #B44D13",
"!  c #B85619",
"~  c #984928",
"^  c #86483B",
"/  c #904D36",
"(  c #A6562D",
")  c #B65828",
"_  c #A85938",
"`  c #B96533",
"'  c #D44C00",
"]  c #CC5400",
"[  c #CA5808",
"{  c #D15700",
"}  c #D65B00",
"|  c #DA5E00",
" . c #C65611",
".. c #EE4600",
"X. c #ED5506",
"o. c #E25D00",
"O. c #EB5E00",
"+. c #DD6102",
"@. c #DA6208",
"#. c #CE6C19",
"$. c #DA6816",
"%. c #E56400",
"&. c #EA6700",
"*. c #EA6A07",
"=. c #F16600",
"-. c #F36D00",
";. c #F67000",
":. c #F67307",
">. c #F47E0E",
",. c #ED7213",
"<. c #C25B29",
"1. c #CB6829",
"2. c #D26D2B",
"3. c #DC772B",
"4. c #C96934",
"5. c #DC713B",
"6. c #EB762A",
"7. c #E97A3A",
"8. c #F07A33",
"9. c #854C40",
"0. c #8B4E40",
"q. c #8D5140",
"w. c #945340",
"e. c #9B5540",
"r. c #9C5940",
"t. c #A25540",
"y. c #A35D40",
"u. c #AC5E40",
"i. c #B05F40",
"p. c #AE6040",
"a. c #B66340",
"s. c #BC6540",
"d. c #C36640",
"f. c #C36840",
"g. c #CC6A40",
"h. c #D26D40",
"j. c #DB6E40",
"k. c #CC7741",
"l. c #D37140",
"z. c #DD7140",
"x. c #E67340",
"c. c #E97540",
"v. c #E67A41",
"b. c #ED7D41",
"n. c #F07E41",
"m. c #DF8D1E",
"M. c #F68113",
"N. c #FE8510",
"B. c #F28A13",
"V. c #F6A71C",
"C. c #FFBD16",
"Z. c #FFB61B",
"A. c #FFB91A",
"S. c #EE922C",
"D. c #F69B2B",
"F. c #FA9A2C",
"G. c #E98639",
"H. c #F38B36",
"J. c #F4853C",
"K. c #F48A3D",
"L. c #F69333",
"P. c #FE9D35",
"I. c #F7943A",
"U. c #FE963E",
"Y. c #FBA527",
"T. c #FDAC23",
"R. c #FEA62D",
"E. c #FFAA2A",
"W. c #FFB122",
"Q. c #FFB229",
"!. c #FFA133",
"~. c #FFCD07",
"^. c #FFC60D",
"/. c #FFCA0A",
"(. c #FFD303",
"). c #FFDD01",
"_. c #FFD809",
"`. c #FFC311",
"'. c #FEC914",
"]. c #FFD415",
"[. c #FFE200",
"{. c #FFEC01",
"}. c #FFE90C",
"|. c #FFF301",
" X c #FFFE00",
".X c #FFFC0C",
"XX c #FFE918",
"oX c #FFFF15",
"OX c #FFFC1E",
"+X c #FFD527",
"@X c #FFE823",
"#X c #FFFC23",
"$X c #FFFB2C",
"%X c #FFEE37",
"&X c #FFFC38",
"*X c #E58240",
"=X c #F48540",
"-X c #F68940",
";X c #F98C40",
":X c #FE9340",
">X c #FFFE44",
",X c #FFFF4D",
"<X c #FFFE58",
"1X c #FFD575",
"2X c #FFE866",
"3X c #FFFF65",
"4X c #FFFC74",
"5X c #FFFF7B",
"6X c #FFED89",
"7X c #FFFC86",
"8X c #FFFF92",
"9X c #FFFF9D",
"0X c #FFFFA2",
"qX c #FFFFAC",
"wX c #FFFFB2",
"eX c #FFFFBB",
"rX c #FFFFC5",
"tX c #FFFFCB",
"yX c #FFFFD5",
"uX c #FFFFDB",
"iX c #FFFFE5",
"pX c #FFFFEC",
"aX c #FFFFF1",
"sX c #FFFFFE",
/* pixels */
"1 < 1 < 1 < < < < < 1 1 < < O + >.N.N.N.N.N.N.N.N.N.N.N.N.B.E Z 1 1 < < 1 < < < 1 < < 1 < < O + M.N.N.N.N.N.N.N.N.N.N.N.N.N.E R ",
"< 1 < 1 < * & & & & * & & & + + >.;.-.-.-.-.-.-.-.-.-.-.;.;.| R 1 < < 1 ; & & & & & & & & & + + >.;.-.;.-.-.-.-.-.-.-.-.-.;.} R ",
"1 1 1 ; & & & & & & & & & & O X >.-.-.-.-.-.-.-.-.-.-.*.,.*.@.C 2 2 2 < * & & & & & & & & & O X >.;.-.-.-.-.-.-.-.-.-.-.-.&.%.Z ",
"< 1 ; & & & & & & & & & & + + . >.;.-.-.-.-.-.:.-.-.,.4.` ` ` ` _ _ _ / / , * = = & & & & & + . >.;.-.-.-.-.-.-.-.-.-.-.&.%.+.Z ",
"1 ; & & & & & & & & & & + + + . >.;.-.-.-.-.,.6.8.L.L.K.K.I.G.-XK.K.5.5.5._ _ / / , & & + & + X >.;.-.-.-.-.-.-.-.-.;.&.%.&.%.Z ",
"1 + & & & & & & & & & + + & + X >.:.-.,.8.F.V.T.Z.(.~.(.(._.(.(.(.Z.W.T.I.-X5.5.a./ d d , + O X >.;.-.-.-.-.-.-.-.-.&.%.%.%.+.Z ",
"< & & & & & & & & & + + + + O X >.,.8.P.T.C._.).).).[.[.[.[.).[.[.).(.C.Z.Q.T.T.L.l.a.w.f p , X >.;.-.-.-.-.-.-.-.%.%.%.%.%.%.Z ",
"< & & & & & & & & + + + & & O X M.F.T.'.{.|. X|.|. X|. X|.[.[.).).[.).(.A.Z.Z.A.W.T.I.z.a./ f % >.-.-.-.-.-.-.-.&.%.&.%.%.%.{ B ",
"1 & & & & & & & + & & + + + M 4.T._.{.$X5X5X5X<X X X X X X|.[.[.).).[.).(.C.Z.Z.Z.A.W.P.v.a.w.d A Q -.-.-.-.-.&.%.%.%.%.%.+.] C ",
"< & & & & & & + + + + + + N 7.Q.%X4X8XtXpXyX0X8X<X X X X X X[.).[.).).[.).C.Z.Z.Z.Z.Z.T.P.v.h.y.g y Q -.-.-.%.%.%.%.%.%.+.| { C ",
"< & & & & & + + + + + + M m._.%X0XpXaXsXpXwX9X9X5X X X X{.[._.[.).).[.).^.A.Z.Z.Z.Z.Z.Z.W.P.n.j.y.f p Q -.&.%.%.%.%.%.+.| | { C ",
"1 & & & & + + & & + + M m.).,XtXaXsXsXsXuX9X9X7X#X X{.[.).^.`.`.`.`.`.`.Z.Z.Z.Z.Z.Z.Z.Z.Z.T.P.7.j.a.d e Q %.%.%.&.%.+.| | | ] C ",
"< & & & + + + + + + M m.).,XuXsXsXsXsXpXwX0X7XOX X[.^.C.E.!.P.P.P.P.P.P.W.Z.Z.Z.Z.Z.Z.Z.Z.Z.W.P.n.g.w.u e W %.%.%.+.} } | { ] C ",
"; * & & + & & + + M 3.~.<XuXsXsXsXsXpXwX9X5XOX[.'.E.P.G.b.b.n.=Xb.*X:X:XP.!.!.W.Z.Z.Z.Z.Z.Z.Z.T.H.x.s.^ q e W %.+.} +.+.] ] ] C ",
"O + + O + O + O M m.'.&XeXsXsXsXiXeXwX5X&X@X`.R.G.=Xv.f.f.f.f.f.4.x.b.=X:X:X:XP.Z.Z.Z.Z.Z.Z.Z.Z.P.b.x.a.9.w 0 W ] { { ] ] ] ] C ",
"+ + . X X . X X ( W.%X0XaXsXsXiXwX9X5XOX(.Y.J.n.z.f.a._ 0.9.0.0.q.u.u.f.b.=X:X:XP.W.Z.Z./.~.(.^.T.P.b.g.r.p 7 3 B Z C B B B B B ",
"M.M.>.>.>.>.>.6.V.[.<XyXsXsXiXwX9X5XOX).F.b.x.s.y.^ d u u w w w i g h w.p.f.v.;X:XP.W.Z.(.[.[.(.`.W.H.5.s.^ w 6 3 < 1 < < < + + ",
"N.;.;.;.;.;.,.8.'.&X0XpXsXiXwX9X5XOX(.R.v.s.y.9.a u a u $ $ $ l Q <.! ^ h w.f.v.:X:XP.W.(.[.[.).(.`.P.n.g.r.h w 4 $ & & & & + X ",
"N.-.-.-.-.-.6.L.[.<XuXsXiXwX9X5XOX(.R.v.s./ i u u > , , * & * D >.;.-. .! 1._ ` v.:X:XP.A.(.).[.[.(.C.H.j.s.w.f 7 5 & & & & + . ",
"N.;.-.-.-.$.7.Z.{.<XuXiXwX9X5X#X(.R.v.p.9.i u > , & & & & * x H U -.-.-.-.-.$.1.4.v.:X:XT.(.[.).[.[.~.F.v.5.r.g w 5 > & & + +   ",
"N.-.-.-.-.2.G._.$X5XeXwX9X5X#X[.T.v.i.9.w u , * & & & & + - H L n =.-.-.-.-.-.-.$.4.*X:XP.C._.).).[.).W.=Xj.s.q.a 7 5 & + & +   ",
"N.-.-.-.-.6.V.{.3X0X9X9X0X,X{.^.I.g.^ u u , & & & & & + * x L L F U =.-.-.-.-.-.;.$.5.n.:X!./.[.[.).[.`.I.n.h.r.f q % & + + +   ",
"N.-.-.-.$.7.^.|.3X0X9X9X5X#X[.T.v._ u 6 , & & & & & + + - H P L b n O.-.-.-.-.-.-.&.,.5.-X:XW.).{.{.).~.R.;Xj.p.9.a 5 @ + + +   ",
"N.-.-.-.1.*X^.|.<X0X9X9X,X{.`.I.g.A 5 $ * & & & & + & * x L L L b b U =.-.-.-.-.&.o.O.,.H.:X!./.|.|.[.(.A.H.c.g.0.s 7 5 + & O   ",
"N.-.-.-.2.=X`.|.3X0X0X5X#X[.T.v.u.p 9 & & & & & + + + - L L L L b v n O.-.-.-.&.%.%.&.%.8.I.:X]. X X X[.~.R.b.h.r.a 7 % + + X   ",
"N.-.-.-.6.-X^.|.&X<X3X#X{./.L.4.f q z l l l l k k l k k G L P L b v b U ..Y Y Y Y Y Y Y X.J.:X]. X X X{.~.R.=Xh.r.h q 5 + O O   ",
"N.;.-.#.5.K.^.|. X X X X{.C.L.s.h 9 j S G H P P L P L S S L L L b v D D L P P P P H D I ' 6.U.]. X X X X(.E.I.h.y.9.a 4 @ O X   ",
"N.;.;.( g.;X^.|. X X X X_.R.v.e.p , & - x b G H P P L L D L P L b D L P P P H H G b m ' | 2.8.]. X X X X_.Z.D.h.y.9.s 7 5 O X   ",
"N.-.-.( g.-X^.|. X X X X_.R.k.g e & & & * x v S G H H P P P P L D L L H G G b v v m ' +.} { 6.]. X X X X_.A.D.h.r.9.s 7 5 X X   ",
"M.;.*.( g.-X`.[.|. X X{./.R.k.f , = & & + - x v v v b G H P P L H H G v v v v v m ' } } { ] 6.]. X X X X[.C.D.h.y.9.s 7 5 X X   ",
"E } +.( g.;XC.).{. X X{./.R.4.p 5 O + O + + * l v v v v b G H L b v v v v v v K ] ] { ] ] ] 6.]. X X X X|.~.D.g.y.9.a 7 5 X X   ",
"R R Z ~ g.;XR.~.[.{.{.).~.R.k.g % + . X X . . + l v v S S S D G D S v v v v n V C C C C C C 3.]..X$X.X X|.(.D.l.y.9.a 7 5 . . . ",
"< < < ^ g.=X:XC.).).).)./.R.k.9.( >.>.>.>.>.>.>.*.S D L P P G b H L D S S v z 1 1 1 < < 1 < <.+X4X0X3X.X|.~.D.g.r.9.s 7 y >.R Z ",
"< < < ~ g.7.;XE.~.[.[.[.~.R.*Xe.) ;.;.;.;.;.;.;.X.P P P L H v v v G L P L S - & & & * & & & ! 1X9X9X9X,X{.^.D.5.y.9.s 7 t ;.} E ",
"1 < 2 ^ d.x.-XE.~.).[.).^.R.;Xf.` ;.-.-.=.-.-.=...P P P H v v v v b L P P L k & & & & & & & <.1X9X9X0X,X).A.D.h.y.9.s 7 t %.%.Z ",
"< 1 ; A y.h.-XR.Z./.(.^.Z.E.U.*X4.:.-.-.-.-.-.X.P P P H v v v v v v H P P P S - & & & & & : #.2X9X9X0X,X_.Z.L.h.r.9.i 7 r %.+.Z ",
"1 ; + y y.h.=X:XE.Z.Z.Z.Z.Z.R.-X5.1.&.-.-.-.=...P L G v v v b n v v v H P P L k * & & & & ) W.2X0X9X8X&X_.E.=X5.r.s 7 6 N %.%.Z ",
"< & & * A d.c.-XR.Z.Z.Z.Z.A.T.U.*X1.*.-.-.-.X.P P L v v v F K V c c v b H L P L j & & + : 2.].3XqX9X,X|./.R.=Xh.w.s 7 r @.%.%.Z ",
"1 = & & A y.h.=XU.E.Z.Z.Z.Z.Z.R.-Xl.1.;.-.-...P L H b m K | %.C 1 - x c v H L L k & & + <.E.}.0XtX9X,X|.A.;Xc.d.9.s 7 t %.%.+.C ",
"< * & & A y.h.c.;XR.Z.Z.Z.Z.Z.E.U.=X6.:.-.X.P L H b K o.%.%.{ C 1 & & - x v H P H j + = 2.].3XuXtX8X&X_.R.=Xx.s.h i 7 t %.&.{ C ",
"< & & & t q.f.c.=XU.E.Z.Z.Z.Z.Z.R.U.=X6.-...P H F K o.&.%.+.{ C 1 & & & * x v G L j : 1.T.2XyXsXtX,X|.~.R.=Xg.r.s 8 7 N %.+.] C ",
"< & & & = A y.h.c.-XR.Z.Z.Z.Z.Z.C.T.U.;X6.X.J K o.o.%.%.| | { B < & & & & & & x c j 1.T.}.4XuXsXrX>X{.^.L.v.d.^ a 7 r +.+.} ] C ",
"< & & & & A q.f.c.=X:XE.Z.Z.Z.^.).~.E.U.J.6.%.o.%.%.%.| | | ] C 1 & & & & & + + : 1.T.}.3XuXsXtX9X&X).R.J.g.r.f 7 7 A +.} | { Z ",
"< & & & & t q.y.h.c.=XR.Z.Z.Z./.[.).~.A.T.U.H.*.*.%.| } | | ] C < & & & & + = = 1.E.XX3XyXsXsXrX,X{.^.L.v.d.9.s 7 w T } | | ] C ",
"< & & & + & d w.f.v.=XU.R.Z.Z.^.).).).).~.Z.T.H.6.@.+.| | { ] C 1 * + = = : 1.V./.2X8XyXsXsXtX9X&X_.R.J.g.y.f 7 7 t [ } | { ] C ",
"< & & & & + t q.y.l.c.=XU.R.Z.A./.).).[.).).).~.T.L.H.6.} [ [ Z 2 : < 2.G.V./.}..X5XuXsXsXrX9X>X|.A.=Xc.` g 8 7 w ~ +.+.] ] ] C ",
"O O + O + + @ y w.y.h.c.J.U.R.Z.A./.).).[. X X|.(.~.W.W.V.L.H.K.G.G.S.Q.}..X4X8XrXpXsXsXrX9X>X{.A.K.c.d.^ a 7 w ~ [ { ] ] ] ] C ",
"+ + X . X X X o y q.y.h.c.=XU.R.Z.Z.^.).{. X X X X X|.|.|.}.XX5X6X6X6X6X7X7XuXaXsXsXsXrX9X>X{.A.K.c.g.w.a 8 7 e B B C B C B B B ",
"M.M.>.>.>.>.>.>.` ^ 9.y.h.v.=XU.R.Z.Z.^.[.{. X X X XoX5X7X5X7X9X0X0XiXpXpXpXsXsXsXrXqX9X>X{.A.K.c.g.y.f 7 7 u y ; 1 1 1 < < + O ",
"N.;.;.;.;.;.;.-.*.( h h y.h.c.;XU.U.R.Z./.).{. X XoX5X9X9X9X9X9X9X0XaXsXsXsXsXsXeX9X&XOX].E.K.c.g.y.f 0 4 q e = & * & & & & + O ",
"N.-.-.-.-.-.-.-.-.@.( h 0.y.g.c.b.=X:XP.R./.).{. X X&X8X9X9X9X9X9X9XwXwXwXwXwXqX>XOX{.~.D.v.v.h.y.9.u 7 7 6 = & & * & & & & +   ",
"N.-.-.-.-.-.-.-.-.-.%.( h 9._ g.v.c.b.=XU.P.E.`./.{. XOX&X8X9X9X9X9X9X7X&XOX#X@X].W.R.H.7.v.g.y.f q 0 7 5 = & & & & & & & + +   ",
"N.-.-.-.-.-.-.-.-.-.-.@.~ h h q.u.g.x.c.b.=X:XP.!.E.'./.[.@X#X#X#X#X@X@X[.~.`.W.H.7.b.c.g.p.q.p 7 7 7 % & & & & & & & & + + +   ",
"N.-.-.-.-.-.-.-.-.-.&.%.@.( h h 9.r.u.g.x.c.b.b.=X:XP.P.E.E.Q.Q.Q.Q.E.T.R.H.G.7.c.x.c.g.r.9.a 7 7 u e = & & & & & & & + + & +   ",
"N.-.-.-.-.-.-.-.-.&.%.%.%.@.~ h s u p 0.i.g.x.x.v.v.b.b.b.b.b.b.b.b.b.b.b.v.x.c.g.s.u.w.s w 8 7 w e = & & & & & & & + + + + +   ",
"N.-.-.-.-.-.-.-.&.%.%.%.%.%. .N r u 8 w p 0.e.i.f.g.c.c.c.c.c.c.c.c.c.x.g.s.d.u.r.0.s w 8 7 w r 3 = & & & & & & & + + + & & O   ",
"N.;.-.-.-.-.;.&.%.%.%.%.%.+.] C 2 e a u 7 w w u p d e.e.t._ u._ u.u.u.e.0.9.d u u w 7 7 w s ~ B 1 & & & & & & & + & + + + + O   ",
"N.-.-.-.-.-.&.%.%.%.%.%.+.| { B < = , e s u 7 7 7 7 q q w u a a u u u w w q 7 7 7 7 u s ~ ! [ B < & & & & & & + + + + + + O X   ",
"N.-.-.-.-.&.%.%.%.%.%.+.} +.{ Z < & & = , , % s u 7 7 7 7 7 7 7 7 7 7 7 5 u a a s T ! ! [ | { C < * & & & & + + & + & + O O X   ",
"N.-.-.-.&.%.%.%.&.%.+.| | } ] C 1 & & & & + & 9 , @ % a u 8 7 7 7 7 7 u p ( ! ! ! @.| } | | ] C 1 & & & & + + + + + + O O O O   ",
"N.;.-.%.%.%.%.%.%.+.} } | { ] C < & & & + + + & + + @ , % $ # # ! Q W ! ! %.%.%.%.| } | } ] ] Z < & & & + + & & + + O O O O X   ",
"M.;.&.%.%.%.&.%.+.} +.+.] ] ] B < & & + + & + + + O O X O X . . ,.;.*.%.%.%.%.%.+.+.| | ] ] ] B < & & & + + + + + O O O O X X   ",
"E } %.+.+.%.+.{ ] ] { ] ] ] ] B + + + + + + + + X X X O X X X   R +.%.o.%.o.%.{ ] { { ] ] ] ] B + + + + + + + + O X X X X X X   ",
"E R Z Z Z Z Z Z B Z C B C C Z B O O                             R R Z C Z Z Z C B Z C B Z C Z B O X                             "
};
