/* XPM */
static char *result[] = {
/* columns rows colors chars-per-pixel */
"64 64 158 2 ",
"   c #006B00",
".  c #008F00",
"X  c #00A100",
"o  c DarkGreen",
"O  c #007200",
"+  c #009700",
"@  c #007100",
"#  c #008300",
"$  c #006100",
"%  c #007900",
"&  c #009800",
"*  c #008D00",
"=  c #007C00",
"-  c #009300",
";  c #00BF00",
":  c #009F00",
">  c #007300",
",  c #008100",
"<  c #006700",
"1  c #006500",
"2  c #006900",
"3  c #007400",
"4  c #006200",
"5  c #00A300",
"6  c #00DA00",
"7  c #00D600",
"8  c #009600",
"9  c #006A00",
"0  c #007D00",
"q  c #00A900",
"w  c #00AA00",
"e  c #00C900",
"r  c #00CE00",
"t  c #007500",
"y  c #009900",
"u  c #00B200",
"i  c #005E00",
"p  c #00A200",
"a  c #009200",
"s  c #009B00",
"d  c #008200",
"f  c #00C500",
"g  c #00D400",
"h  c #008500",
"j  c #00B600",
"k  c #00B900",
"l  c #009C00",
"z  c #005C00",
"x  c #006F00",
"c  c #009A00",
"v  c #00D900",
"b  c #00E000",
"n  c #005A00",
"m  c #006C00",
"M  c #008C00",
"N  c #00C700",
"B  c #005B00",
"V  c #007B00",
"C  c #00A600",
"Z  c #00CC00",
"A  c #00A700",
"S  c #009400",
"D  c #008600",
"F  c #00BA00",
"G  c #00A800",
"H  c #005900",
"J  c #00AC00",
"K  c #005800",
"L  c #007700",
"P  c #008B00",
"I  c #008700",
"U  c #007800",
"Y  c #008800",
"T  c #007000",
"R  c #00C200",
"E  c #00AB00",
"W  c #006800",
"Q  c #00B500",
"!  c #008A00",
"~  c #00BD00",
"^  c #007E00",
"/  c #007A00",
"(  c #008400",
")  c #00C400",
"_  c #009500",
"`  c #009D00",
"'  c #006D00",
"]  c #00E800",
"[  c #00CD00",
"{  c #00B700",
"}  c #00BB00",
"|  c #00AD00",
" . c #007F00",
".. c #007600",
"X. c #008E00",
"o. c #005600",
"O. c #005200",
"+. c #008900",
"@. c #00A400",
"#. c #006000",
"$. c #005F00",
"%. c #009000",
"&. c #00A000",
"*. c #008000",
"=. c #00C100",
"-. c #00D000",
";. c #00CF00",
":. c #00C000",
">. c #00DD00",
",. c #00CB00",
"<. c #006600",
"1. c #00B300",
"2. c #00B400",
"3. c #00BE00",
"4. c #00DB00",
"5. c #006300",
"6. c #003E00",
"7. c #00D500",
"8. c #00B100",
"9. c #005500",
"0. c #00AE00",
"q. c #00B000",
"w. c #006E00",
"e. c #00D100",
"r. c #00C300",
"t. c #00AF00",
"y. c #005000",
"u. c #00E400",
"i. c #005700",
"p. c #005300",
"a. c #00DE00",
"s. c #00C800",
"d. c #00CA00",
"f. c #00B800",
"g. c #00DF00",
"h. c #00D300",
"j. c #005D00",
"k. c #00A500",
"l. c #005400",
"z. c #009100",
"x. c #00E600",
"c. c #00C600",
"v. c #00D800",
"b. c #004F00",
"n. c #00BC00",
"m. c #009E00",
"M. c #00E100",
"N. c #00D200",
"B. c #00E300",
"V. c #00E500",
"C. c #00DC00",
"Z. c #00D700",
"A. c #004D00",
"S. c #00E700",
"D. c #004B00",
"F. c #00E200",
"G. c #005100",
"H. c white",
/* pixels */
"  . X o O + @ # $ % & * = - ; : % > , < o 1 2 3 3 4 5 6 7 8 9 0 q w % e r t y u i $ 3 p y a s d 3 . f g h o j k l z x c v b 8 n ",
"m O M M > N B V C Z j A # a S 4 D F - = G d H D V t 8 F J d K L P X I U V 2 , & & Y > x C 0 T I T S R E % 1 U W 9 W V # Q ; 7 ! ",
"L 1 < I Y ~ B h y , % ^ / U > ( ) G m _ ) # o 3 < % 2 ^ V ` P m % x o ' / t T x & ] [ W 0 , q { V _ ` t 4 $ _ } |  .i % x ..P X.",
"W o.O.+.e @.#.$./ %.&.*.2 T = =.R % 1 T O K @   2 Y X.. t : -.;.e R A . 0 U ^   :.) l x o f >.X P * m   < G ,.M 9 ..8 h V 2 > 1 ",
"<.^ X 1.2.U <.+.;.[ Y W O ( P w D m @ X T # ` m m J ;.w + >  .w w G & (   X 3...% ! O m S 4.u , U 2  .5.x ^ $ O.6.1.k - =.f 7.J ",
", :.y # d 9 @ :.8./ P U * p T L 0 $.* X.X =.t 9.T %.~ e 7 -.0.3 / ' ' $ P 7 e M $ 5.V H ` q.L t *.' ^ w.t X.&.A X.p ' <  .d - : ",
"3 0 1 n   #.W > 5.+ ,.2 1.p m L #.P Y . e.O #.# ..# | 2.} r.r.P < j l 9 E ;.t.V y.9.*  .# < +.1.:.R w > U P p g u.=.&.= i.n z p.",
"H B 9 H 9 ! ` 8 l 6 q $ :.8.0 5.i v | 0. .x f :.B U P ( h - S V 5 a.l 2 @.c T > y < , ..  # s.r d.| > t P < 0 ` f.-.e.j P n O.H ",
"*.a k X.U * =.g.h.} 8 n j | U 5.> X.@. .<.h.r., j.@  .U d < 4   d.e.Y 2 % j.4 C * @ 4 9 Y :.3.| Y m I Q e.R d t ( _ y &.0 & M <.",
"M k.) d.+ < , j f.` & $ %.V l.* 8.M ..9 &.A t W W ..3 % x C z.T J w d + +.n / _ Q X m ` # h ..@ 2 1 X.&.y f.k V O  .U % T } R ..",
"2 X.t.7.,.%.@ # 8 ` ..< L - 0 F x.v Z u  .$ 2 9 ( : N 7 d C c.( x ..u R + <.W 2 1.A V g.+ > X X & I D   _ , 3 V m O L O > C v 8.",
"- = & G g ; y x % % $ T G v.# 0 :.:.k .  .9 @ & f.g.;.q. .@ h Y O W H B l.b.5.5.m X.i 0.P | a.v.:.s I +.r } q +.% , - E 0 O ~ a.",
"c.D  .+ A F j _ o 4 O u -.k *.+.x 2 5.9 > 2 x - 3.; p +.D 7 + z * % A | : ( P u  .3 B  .h & * = L h   m Y 2.;.r & ! ) s.S   , n.",
"t.: T % M 8 # t # t @ ,.| / T p P z.C C z.9 5.d a z.m.% J M.j T V 5 ` Z 1.D / A 3...<.H 9 W , %.8.,.a V > h s A O | [ c T # % @ ",
"U X.D ! U < P ` 3.^ *.+ 2 i c { N.Z d.:.s o i o 3 V , ^ r ;.*.W = % T M % < O O { 2./ 4 1.:.O S F 2.3 a k.L P D = { c i d 3.8.+.",
"0 %.E Z q @ p B.0.U i M | ^ = + y %.. 0 <.2 9 5.x L < I g 1.U y 1 > j L ..t p a d k x D E C 1 x m 3 I P 0 U V > M @., B @.e.e.p ",
"y f a.,.& $ D N v.& , -.4.8.9 w.m , L 1 x / s &.d o.m h 8.* c } i h d.d . 5.: 6 # I *.d a Q ..U m D ) % > y t.N.a.v.7.S + h.G % ",
"s.a.} = 1 L t A [ J U q 8.p t T a s.+ I < t V k.) 8 2 = y ' q.8 1 *.2.> d < h s.8.m $ %.[ v.:.K < ! w w.= C ` s p u f.p %.@.% t ",
"q 5 @ W w ! ' ! 5 L , X.X.w.W D d.V.t.> T ..I 4 ,  .5.> O % h V o 1 I 2 2 W *.* } <.< m.t.F v - m U S %.  *.( ( h d 0 Y t = L ` ",
"3 ^ z.k 5 % ..t % z f.l ' h 3 1 a s.Q X.  y d I $ T h O ^ ! p.& 2.L 5.w.0 $ ' = a x   ( - Q 3.F h < D d W m d w.V O 8 2.y 0 h z.",
"x - q.s l e.Q V x 4 k.f - } &., w.a ..0 # X.0.  5 } h 2 ` ` z l 7.m.w.%.s.+.4 <.  T x ^ D ( z.X. .< @ , z.V ..X.d 5.N f C ! ....",
"t V +.5.U 0.h.7 U m , g @.,.f @.*.n x C k.E Y - f a *.o 0.) @ y C.V _ E 7 t.U w.X.L O > ' U P z.8 +.> @ *.: N u.{ y.8.C.k.%.% T ",
"j.1 9 % < t a %.O 5...z.c M f S O * s.[ } > = >.: %./ > 2.r m * R W c %.=.k T @.1.c U *.../ w r.,.l w.X.E v.7.t.M h I N Z.J D / ",
"- J *.k.1.t O o x ! 0 2 t 0 &.W , 7.,.w C <.@.; P M 5.I | C m @ * T + w 8.& j.d U O m 8 a 5 *.@ / d x L X F k.c ..:.h.0 t.:.I T ",
"| M T d j E ' <.2 =.k o O 0 O O p l M D / o c y ( < 4 L h 5 = w.I #.p ` % I w.d j M 4 8 s.n.t z.0.F d   Y Y a ! I v s.! o D T Y ",
"/ ..I t +.) ` i x a.w 3 ' < 1 > w.w.L +.G D ' V 5...e.* O ^ = 5. .$ , ` N ! 3 8.; V m / :.` U Z.-.| = $.B V 0 O J g.m.9 > I M X ",
"^ X 8.%.= m.z.w.G s.V t 3.s.d m ..C 7 V.C.h #.T 2 A b : o O ^ 3 5.A.&.S.u w.U a W C 0.3 w ^ 0.R Y x w.$ > > 2 ' t.d.h 8 _ 2 O O ",
"M &.Z.E T d 0 4 C +.$ 1 ` 2.=.= ..I A n.X.p.> h ` + n.! a ;.r d.*.# 6 1...U a m : 3._ V > L : 3 ..X.o #.0.T 4 > s &.^ =._ 2 I +.",
"> + Z.r.I t ' ` d w.$ 4 m W @ 1 $ j.9 D W w.# U t ^ & ..! C r _ 5.k.2./ ' # N.8 % ( 0   o > ^ x ^ s 9., ` x %   * U h f ! T t.m.",
"  w.| v u 2 5.m.*.M e = 2 x U = ..*.3 <...X J C z.# < @  .I = T D / U X.8 = f ,.> *._ . 9 Y w &...2 E c w.^ x O x O _ t.= ( f.& ",
"+.^ ..Q m.w.A.% @ *.-.D 0 :.M.w 0 } 2.4 = } Z.v v } d m x o 9 Y , 2 m 0.J   8 V @ k.u.j @ } h.w W * I * #  .c *.T _ I y 3 : A t ",
"d.=.> . 0 $ i #.o H &.d I q c = L t.Z.( +.1.{ } s.Z.c.# 1 h 3 D ;.Y % n.j < 9 0 z.a e.( # T 0 8 m V r. .V ,.S O % k ( 5.O .   ^ ",
"c.d.+ W #.3 @ #.0.z.^ < m  .L 9 L M k . w.J m.G X 5 k.D  .> w.: h.z., r f.' A R , O d B Y `  .2 + B.m.*.-.: +.   .N.n.# > U ! Z ",
"k.d.M o.^ 8. .4 %.U y.+.d.F  .#.x   =   z P 8 ! d ^ T = C = n O : t %.h.h C { x o.% y q +...% l >.3.o r.F * *   c :.v N # m E 2.",
"t.u @ : 7 } S O i o.X.N @.<.   ...V X k d <.U $ @ %.% H S 0.m *.9 m . +.m I 4 t . > P y *.<.D.+.-.I # =.c +.x o m.+ A h.:.. L c ",
"S O Y V.N J h U   o ^ U O = ^ ' t X } v : U > V j v.a.c 1  .U } > V 1 ' w.T @ ) : $.T .., m  .Y ! 2 0 _ P ' 2 ^ 3 x M l F S o I ",
"' L k :.q I W 0 ( o $ L :.F *.K L s n.Z.G U 1 / q t.3.M.h < O ~ X.% x 2 +.w &.w 3 4 | &.3 < 0 9   9 5.3 2 j.=.,.t 5.W 3 > 4 3 # ",
"t y @.: a > T & f.S  .4 | 7.! z % & u F.X 1 t O ! ` c =.e @ 1 n.* ! V n h p p @ ' o 9 3 ( c # w.@ 1 $.x ..* c.e O  .z.*  .< / C ",
"= *.X.= 2 / O ( R v.&...W =.M z x - G h.y ' &.L % % # 8 A t ' m.w.O 1 9 / . W s X.n L 1.4.n.l Z J <.<.0 %.a X q / n.N.v A % | G ",
"T 1 ' @   X.q ' j 7.u A ^ P t i.2 = X X h q.] | U = 3  ...@ ^ 4 n 2 = 0 <.I M Z.U : *.0.0.- h.A 9 T ! d ..3 ^ m / %.Q E 4 E p 3 ",
"u C D  .o 0.-.> ` ) v.,.# 9 U H o.% / _ > P E e.r.V W > 9 - f.< / 8.+.&   2 J 1.> r o ..^ ) a 0 3 a { ~ t.c T 4 ..= t 5._ & t 5 ",
"d.4.3.K W ,.;.+.T k.l d m 5.' I _ #.L @ @ * <.p q ^ = w.* 6 { a ..= # : #.<.Q U 8.8.m l.P c p # w.X Z 7.C.C.2.0 w.9 w.% : T ! 0.",
"8 + a j.d [ k 8 x O <.x U 4 2 + 5 P q.T P @ m + % , #   ) 7._ T W ..G C z W P O ) / w.m w.A r.w.' q J u 1.r.r 0.2 .., - s 3 D +.",
"# +.> i z.[ q  .3 : q x V O 2 ; ` t.G j.$.n / d W S s T c.F L z 0 w [ p o ^ $ ( ^ i.w l s F - <.5.& : X 5 m.s P +.^ > M @.@.V , ",
"3 / ! m M Q h ' e 4.m.1 > H # c.( w.i.m.Z h L X.= v.( U q.l < P 0 m.k.h # 0 $ 3 i 2 + 3 %.D T 0 t O Y M @ L m 2 * A   V c.z.*.#.",
"U %.5 L t 3 2 { C.E 2 $ 0 3 = U T ..; g.:.%.D V @.v V T & > O ; W z.( x . : (   #.B W o 9 W c =.Y m @   m l E T 5.q.( * C ^ d <.",
"t , , z 5.  l v 0.*.h 7.-.; + 3 l J 0.. , < x 1 Q d.c <.w.  e f.L ' x T S Z F.# @ G j c > P b e : %.V ' : s.6 a.*.<.O ! ( ..= o ",
"O k.;.% #...8 : @ #.h } r.f.%.w.^ _ ( ..t x z d e { @., 4 E a.c V x D <...G _ s 7.e.3.@.3 q.Z.q.j & ' 1 . q G N r O T   B D ` ^ ",
"9 S [ ;., 2 O 3 X.q w 8.&.t n U q 7 ] 7.L L   S 1.: - 8 T R f %.1 ^ S : T O  .-.7 E M 0 i E u E c U 3 ..% X.+ l N.l o U E e A x ",
"<.+.C 4.C 2 d A [ 6 u.Z 5 ^ w.% %.&.t.N.{ w.= , % t V U t ) 8.# W ' O F 3.B p g.1.X.d 3 w.w l ! @ <.G ` T U L h 8 +.m V + ` = L ",
"  @ M } N m c &.q : _ Y x ' ..> t x 0 I ( j.Q >.y o t 2 D G c 0 < 2 L - Z.P r c.M Y  .= < V > W 2 M >.6 : , > U V 2 ! %.t > l &.",
" .1 h p 2. .^ % ..W 5.m V S 1.&.D %   < o F h.G h 4 & h w.d  .W H 9 W w.J A 7 | ! M 3 O j.9 / ( I @.1.f.e.k.2 T    .e 5 W *.N.3.",
"3 i ^ Y X.+.  4 < W L 3 > D &.f.k { q k.S k z.< j.z > C I ..2 p.d ..#.t * 8.=.8 * % o 1 z = 8 D z.y ` & &.Y *.t = N h.a W . 7.c.",
"@ <.  1 o <.<.@ y =.-.Q ..1 > # X.p u | t % @ 5., 3 4 ..l O 9.3 +.q.2 < / : + @ ' $ 9.< ! P w.m / ^  .z.( m & 1 c 4.t.= z a c.;.",
"> ..h p X j ~ ` / } ;.b ~ ^ $.z o #.T / 3   K 8.g 3 G.$ 4 w.E J w.a + O 9 @ L '   z p.d Q h.Z D m T   = V 3 ;   X r.a 2 3 - u ) ",
"d I x P u ~ s.5 < %.w J y L t D ( 0 3 @ m z V m.C #.$.*.O P e.e O T ! Y ' W < m ^ , O.W S w c.Z 1.C & + ..~ ; i ` G O , +.D @.! ",
"( X u *.< h I V 4 3 O = T 9 # t.) g v h #.x - q m O c p W s >.G n 0 %.U h z 9.& )  .' t *.A w 0.~ N.j Y V 7 0.9 *.h j.} _   z.  ",
"U t.g 7 8 9 W o   w.< % # Y t q F j b - ! / f.4.G &.N.E 9 l 2.O m t 8 E d w.U v.5 2 _ y o M X.8 m.C m.< ! [ { , o <.E Z.M O <.3 ",
"$ I 8 @.w 3 X.@.= < I @.&.p o X.f.C F I , 0 =.7.A q.C.! $ w.x ^ h @ D 7.R G M a O 5.C ' o m / d l a +.W Q r.C c O  .a.Q ( m +.h ",
"&.  T   k.1.& M.z.$.8 n.=.k.( m %.- _ 3 W * J k # 0.k.  D _ m.: w _ ' J -.4.O m ' ' V c ! 1 2 > V 0 2 *.p s z.z.0 %.h.k.3 2 Y _ ",
"v.& <.o ; u - n.+.$._ e h.n.a <...L *.<.w.P P *., L 3 % ! : u f.J } C @ I P I 3 L : T } k h i   < / o %  .L m ^ <.k.; 8 O 1 T h ",
"0.g 2   s.5 B 9 1 i ' f g.1.m j.j.w.9 ' m % x $.9. . .<.< 0 q.r v _ S ^  .2 V <.< m.~ m u t > x t 1 o V % $ W ' 3 - : D x o T 0 ",
"( Z.D O e = 4 h y * 3 = +.O #.0 f.@.V U  .u n.3.- J @ h P i # q.v X U t.F 8 t ..U / e 5 L L r.u o o D O <.W h ! 9 / / m z m W o ",
"*.k z.1 a m %.a.s /   W w.  , s.~ a +.# y 1.Q @.X.2 V d.d.I o z.R J ! v 6 p 1 q ^ W p >.2 p [ C x V g e.m <.J r ` x ' T - 3 9 <."
};
