/* XPM */
static char *result[] = {
/* columns rows colors chars-per-pixel */
"64 64 221 2 ",
"   c #3D0000",
".  c #460100",
"X  c #4B0000",
"o  c #4F0C0C",
"O  c #540000",
"+  c #5D0000",
"@  c #590909",
"#  c #591615",
"$  c #640300",
"%  c #6A0B05",
"&  c #6A0D0A",
"*  c #6F1C00",
"=  c #6E110B",
"-  c #741A09",
";  c #611313",
":  c #6C1818",
">  c #751D13",
",  c #711E1E",
"<  c #742500",
"1  c #752900",
"2  c #7B2A00",
"3  c #7B2614",
"4  c #682829",
"5  c #752525",
"6  c #6D303B",
"7  c #7F3437",
"8  c #7A363A",
"9  c #773B41",
"0  c #7E454B",
"q  c #84390C",
"w  c #9D3704",
"e  c #873611",
"r  c #A23700",
"t  c #A53B00",
"y  c #A93D00",
"u  c #883C2A",
"i  c #813535",
"p  c #873B3B",
"a  c #9F5F1F",
"s  c #AE4100",
"d  c #A6430D",
"f  c #B24300",
"g  c #AA6E1E",
"h  c #8F433A",
"j  c #92443A",
"k  c #9D4F39",
"l  c #9C523C",
"z  c #A55D2A",
"x  c #A75735",
"c  c #A2513D",
"v  c #B65E3A",
"b  c #A7672D",
"n  c #BD6D2B",
"m  c #B86836",
"M  c #BC623A",
"N  c #AD7333",
"B  c #CC5400",
"V  c #D15700",
"C  c #D55B00",
"Z  c #DA5E00",
"A  c #D25F0E",
"S  c #DE6000",
"D  c #DA630C",
"F  c #E56400",
"G  c #E96700",
"H  c #E56A0B",
"J  c #E86B08",
"K  c #F36D00",
"L  c #ED7C0D",
"P  c #F67000",
"I  c #F87200",
"U  c #F1720C",
"Y  c #F47E0E",
"T  c #E06C19",
"R  c #EC7415",
"E  c #E6721B",
"W  c #F37D10",
"Q  c #CC6B2C",
"!  c #D26D2A",
"~  c #C27E23",
"^  c #C3663C",
"/  c #C8693B",
"(  c #D36D3C",
")  c #D97736",
"_  c #DB743A",
"`  c #D5793A",
"'  c #DD7D3C",
"]  c #E27F3B",
"[  c #8B3F42",
"{  c #824345",
"}  c #8C4848",
"|  c #8D4F4C",
" . c #914442",
".. c #934B49",
"X. c #99534A",
"o. c #895455",
"O. c #975A5A",
"+. c #985858",
"@. c #A75B44",
"#. c #A65C44",
"$. c #A65E4C",
"%. c #A25E54",
"&. c #AA624E",
"*. c #BD6B44",
"=. c #B5684B",
"-. c #BF7243",
";. c #B2704A",
":. c #A86459",
">. c #BA7555",
",. c #936F77",
"<. c #97747C",
"1. c #CB6D45",
"2. c #C77348",
"3. c #D77D45",
"4. c #C97D54",
"5. c #B7841B",
"6. c #B58A23",
"7. c #BC8728",
"8. c #CA8C1C",
"9. c #DF911E",
"0. c #F7820E",
"q. c #F8830E",
"w. c #F68010",
"e. c #FE8510",
"r. c #F48B1A",
"t. c #F7BA0A",
"y. c #E7A919",
"u. c #F2A819",
"i. c #F5AD1A",
"p. c #E6B518",
"a. c #F5B716",
"s. c #D88C28",
"d. c #C49423",
"f. c #DF9120",
"g. c #D5902F",
"h. c #DE8432",
"j. c #C39939",
"k. c #E48C25",
"l. c #E5872E",
"z. c #F78D26",
"x. c #EC9B27",
"c. c #EA8C34",
"v. c #E7883A",
"b. c #EA9136",
"n. c #F4943A",
"m. c #F69939",
"M. c #EAAB25",
"N. c #F7A625",
"B. c #F4B323",
"V. c #F5A635",
"C. c #EEB033",
"Z. c #F5C406",
"A. c #F3C902",
"S. c #F8CB03",
"D. c #F6D603",
"F. c #EBCB1E",
"G. c #F8CF12",
"H. c #F8E400",
"J. c #F8EB01",
"K. c #F7EB08",
"L. c #F8F401",
"P. c #F8F800",
"I. c #F8F909",
"U. c #F8E717",
"Y. c #F8F617",
"T. c #F7C525",
"R. c #EED127",
"E. c #F5D926",
"W. c #E9C537",
"Q. c #F6C838",
"!. c #F7E727",
"~. c #F5E536",
"^. c #F8F53E",
"/. c #B88A46",
"(. c #BD8F54",
"). c #D88044",
"_. c #D0954C",
"`. c #DD8B58",
"'. c #DE9159",
"]. c #E38848",
"[. c #EA944E",
"{. c #E3985C",
"}. c #CFAF4D",
"|. c #EDA84E",
" X c #F6BD43",
".X c #CF8964",
"XX c #E69862",
"oX c #CFB265",
"OX c #ECC741",
"+X c #EBCA4D",
"@X c #F7EC49",
"#X c #F8F046",
"$X c #F7E753",
"%X c #F8F458",
"&X c #F7CD68",
"*X c #EBD164",
"=X c #EBDE6A",
"-X c #F8EF69",
";X c #F8F868",
":X c #F7ED79",
">X c #F8F479",
",X c #F8F885",
"<X c #F8F688",
"1X c #F9F88B",
"2X c #F8F893",
"3X c #F9F298",
"4X c #F8F99B",
"5X c #F4ECA8",
"6X c #F8F3A4",
"7X c #F8F9A4",
"8X c #F7F4AB",
"9X c #F8F8B4",
"0X c #F8F7BC",
"qX c #F8F8BE",
"wX c #F8F7C6",
"eX c #F8F9D4",
"rX c #F8F7DB",
"tX c #F8F8E3",
"yX c #F8F8EC",
"uX c #F8F8F4",
"iX c #F8F8F9",
/* pixels */
"1 1 1 < 2 1 < 1 < < 1 < < < O + w.e.e.e.e.e.e.e.e.e.e.e.e.0.f s 1 < 1 < 1 < < < 1 < < 1 < * O + w.e.e.e.e.e.e.e.e.e.e.e.e.0.f s ",
"< < < 1 * $ $ $ $ $ $ $ $ $ + + 0.P K K P K P K K P K K K P S s 1 < 1 1 * $ $ $ $ $ $ $ $ $ + + 0.P K P P K K P K K K P P P C f ",
"1 < 1 * $ $ $ $ $ $ $ $ $ $ + . Y P K K K K K K K K K K K G F t < < 1 * $ $ $ $ $ $ $ $ $ $ + . Y P K K K K K K K K K K K G F y ",
"< 1 * $ $ $ $ $ $ $ $ $ $ + + . Y K K K K K K K K K K K G F F t < 1 * + $ $ $ $ $ $ $ $ $ $ + . Y P K K K K K K K K K K G F F t ",
"1 * $ $ $ $ % $ $ $ $ $ + + + . Y P K K K K K K K K P G F F F t 2 * $ $ $ $ $ $ $ $ $ $ + + + . Y P K K K K K K K K K G F G F t ",
"< $ $ $ $ $ $ $ $ $ $ + + $ + . Y P K K K K K K K K G F F F F t < % $ $ $ $ $ $ $ $ $ + + + + . Y P K K K K K K K K G F F F F t ",
"< $ $ $ $ $ $ $ $ $ + + + + + . Y P K K K K K K K G F F F G F t < $ $ $ $ $ $ $ $ $ + + $ + + . Y P K K K K K K K G F F F F F t ",
"< + $ $ $ $ $ $ $ + + $ + $ O . Y P K K K P K K G F F F F F V t 1 $ $ $ $ $ $ $ $ + + + + $ + . Y K K K K K K K G F F G F F V t ",
"1 $ $ $ $ $ $ $ + + + + + + X . Y P K K K K K G F G F F F S B t < $ $ $ $ $ $ $ + + $ + $ + . . Y P K K K K K G F F F G F S B t ",
"< $ $ $ $ $ $ $ + $ + + + O X . Y P K K K K G F F F F F S S V t < $ $ $ $ $ $ + $ + + + + O X . Y P K K K K G F F G F F S C V t ",
"< $ $ $ $ $ + + + + + + O O O . Y P K K K G F F F F F S C C V t 2 $ $ $ $ $ + + + + + + O O O . Y P K K K G F F F F F S Z Z V t ",
"1 $ $ $ $ + + + + $ + O O O X . L P K K G F F F G F S C C S B w < $ $ $ $ + + + $ + + O O O X . Y P K K G F F F F G S C Z Z B t ",
"< $ $ $ + + + + $ + O O O O . . 0.P K G F F F F F S V S C V B s < $ $ $ + + + + + + O O O O . . Y P K G F F F F F Z C Z C V B t ",
"* $ $ $ $ + + $ + O O O O X X . L I F F G F G F S S S C B B B w < $ $ $ $ + $ + + O O O O O . . L P G F F F F G S Z Z Z B B B t ",
"O + + O + + + + . X O . . . . . s S F S S F F C V V B B B B B w + O + + + + O + . X O X . . . . s Z F F F F F V B V B B B B B t ",
"+ + X . . . . . . . X . . . . . t s s t w s w s w t t w t t t w $ O . . . . . . . . . . . . . . t s t t t t t t t t t r t t r r ",
"w.0.L Y Y Y Y Y Y Y Y Y Y L s t 2 1 1 < 1 < < < < < q 2 b 6.6.6.B.T.B.N.r.r.Y W Y Y Y Y Y L f t 2 1 1 1 2 2 < < < < 2 < < < + + ",
"e.P P P P P P P P P P P P I Z s 1 1 < 1 * $ $ $ u /.*X=X5X9XqXqXwX0X-X#X~.E.V.z.I K P K P I Z y 1 < < 1 * $ $ $ $ $ $ $ $ $ + O ",
"e.K K K K K K K K K K K K G F t 1 < 1 * $ $ = 3 }.>X0XyXiXiXiXtXeXwX7X2X>X#XU.T.W U K K K G F t < < 1 * $ $ $ $ $ $ $ $ $ $ +   ",
"e.P K K K K K K K K K K G F F t < 1 * $ $ > }.=XqXyXiXtXeX2X>X>X;X;X;X<X4X4X>X#XE. XW K G F F t 1 1 * $ $ $ $ $ $ $ $ $ $ + +   ",
"e.P K K K K K K K K K G F F F t 1 * $ $ = /.8XrXiXyX7X%XR.p.d.6.6.d.p.R.%X1X4X2X^.K.OXR F F F t 1 * $ $ $ $ $ $ $ $ $ $ + + +   ",
"e.K K K K K K K K K G F F F F t < $ $ > oX8XuXuX8X$XF.8.z k  . . . .k b d.W.%X1X1X^.U.OXR G F t < $ $ $ $ $ $ $ $ $ $ + + $ +   ",
"e.K K K K K K K K G F F F F F t < $ 3 oX2XyXiX3XF.8.x p } [ 5 4 ! ! 1.@.&.m y.!.,X,XY.U.|.R F t < $ $ $ $ $ $ $ $ $ + + + + +   ",
"e.K K K K K K K G F F F F F V t 1 $ ;.:XtXuX8XOXQ ..O.7 : & + . Y P G U '.4.^ y.!.,X%XH.T.[.V t < $ $ $ $ $ $ $ $ + + $ + $ O   ",
"e.K K K K P K G F F F F F S V t 1 - }.9XiX4XF.n  .p 5 $ $ + . . Y P K K K U ` -.u.!.Y.P.D.V.A t 2 $ $ $ $ $ $ $ + + + + + + X   ",
"e.P K K K K G F F F F G Z Z V t 1 5.%XtXrX~.~ ....$ + + + O X . Y P K K K K H 3.3.i.H.P.H.i.) t < $ $ $ $ $ $ + $ + + + + O O   ",
"e.P K K K G F F F F F S C Z B t N !.1XyX1Xp.c p , + + + O O O . Y P K K K G F H ] v.Z.L.L.A.).M < $ $ $ $ $ + + + + $ + O O X   ",
"e.K K K G F F G G F S C Z Z B w (.U.9XeX!.~ +.i + + + O O O X . Y P K K G F F F ].`.N.H.P.A.v.2.< $ $ $ $ + + + + + + O O O O   ",
"e.P K G F F F F F S C C Z V B t }.U.9XwXR.b O.: + + O O O O . . Y P K F F F F F E '.n.S.L.A.' 2.1 $ $ $ + + $ + $ + O O O O X   ",
"0.P G F F F F F S C S Z B B B t E.L.9X6XM.#.| $ + O O O O X . . L I F F F F G G S ].[.S.L.A.) -.< $ $ $ + + + $ + O O O O . X   ",
"f C F F F F F C V V V B B B B t !.L.4X-Xs.&.o.O X X X O . X . . f Z F F F F F V V A m.t.H.A.) 2.+ O + O + + + + . X X X . . X   ",
"s s t t t t t w t t w t t t w w E.J.;X#Xs.&.o.. . . . . . . . . t s t t t t t t t d M.S.D.a.) *.+ + X . . . . . . . . . . . . . ",
"2 1 1 < 2 < < 2 < 1 < 1 < < O +  XH.I.K.s.$.'.Y Y Y Y Y Y L f y 2 1 1 < 1 < < < 2 e y.H.S.M._ *.L w.W 0.Y Y Y Y Y Y Y Y Y Y y y ",
"< < < 1 * $ $ $ $ $ $ $ $ % + + |.D.P.J.s.&.`.P P P P K P I Z y 1 1 < 1 * $ $ $ $ - C.%XA.k.( *.w.I P P P P P P P P P K P I Z f ",
"< < 1 * $ $ $ $ $ $ $ $ $ $ + . _.A.J.L.y.$.4.G K K K K K G F t 1 < 1 * $ $ $ $ $ N $X-Xt.v.^ @.Y P K K K K K K K K K K K G F y ",
"< < * $ $ $ $ $ $ $ $ $ $ + + X '.p.J.P.A.m :.U K K K K G F F y < 1 * $ $ $ $ $ > W.3X@Xu._ M | Y K K K K K K K K K K K G G S y ",
"1 * $ $ $ $ $ $ $ $ $ $ + + + . XXg.Z.L.J.s.&.T K K K G F F S r 1 * $ $ $ $ $ $ e +X6XQ.l.( @.{ Y K K K K K K K K K K G F F S y ",
"< $ $ $ $ $ $ $ $ $ $ $ + $ O . [._.x.H.L.a.1.^ K K G F F G F t 1 $ $ $ $ $ $ % j.<X:Xu._ ^ %.o.Y I K K K K K K K K G F F G S y ",
"< $ $ $ $ $ $ $ $ $ + + + + + X w.` ` t.J.D.c.1.` J F F F F F y < $ $ $ $ $ = 7.;X0XQ.l._ x p # Y I K K K K K K K G F F F F F y ",
"< $ $ $ $ $ $ $ $ + + $ $ $ O . Y L .Xc.Z.H.i.].3.` H J F G C r 1 $ $ $ % - n @X6X&Xc.( 1.:.; . Y K K K K K K K G F G F F G C r ",
"< $ $ $ $ $ $ $ + + $ + $ + X . Y P {.=.h.Z.S.N.n.' `.] E H V t < $ = l (.*X<X5X&Xb._ M $.| X . Y P K K K K K G F F F F F S V t ",
"< $ $ $ $ $ $ + + $ + + + O X . Y P U 2.=.h.t.t.N.n.[.] ].l.k.~ g a j.$X>XwX5X&Xc.( M X.+.; X . Y P K K K K G F F F G G Z Z V t ",
"< % $ $ $ $ + + + + + + O O . . Y P K R .X=.) x.i.V.m.m.i.G.J.K.@X@X%X:X:X&XC.l._ M X.+.; O O . Y K K K K G F F F F F Z C Z V r ",
"< $ $ $ $ + + + + + + O O O X . Y P K K H Q $.v ` b.v.n.V.a.D.H.K.U.R.B.M.l._ ( M X.O.; O O X . Y I K K G F F F G F Z C Z C B y ",
"< $ $ $ + + + $ + + O O O O . . W P K G F H >...l M ^ ` ' h.h.f.9.9.v._ ( / v c } | ; O O O . . Y P K G F F F F F Z C Z Z V B r ",
"< $ $ + $ + + + $ O O O O O X . L P G F F G H D $.0 h l X.c c c c c c  .k j { o.: @ O O O X . . L I G F F F F F S Z Z Z V B B y ",
"O O + + + + + O X X X O . . .   f S F S F F F C Q >.o.8 p 7 7 7 i i i 9 6 8 0 8 . X X O . X . . f Z F F F F F C B V B B B B B t ",
"+ + X . . . . . . . . . . . . . t s t t t t t t t t w w x <.<.<.<.<.,.4 o o . . . . . . . . . . t s t t t t t t t t t r t r r r ",
"w.0.Y Y Y Y Y Y Y Y Y Y 0.L f t 2 1 < < 1 < < < < 2 < < 1 < O + Y w.Y Y Y Y Y Y Y Y Y Y Y L f t 2 1 1 < 2 < < 2 < < 2 < < < + + ",
"e.I P P P P K P P P P K K I S s 1 < < 1 * $ $ $ $ $ $ $ $ $ + + Y I K K P I I K I K I K P I Z y 1 < < 1 * $ $ $ $ $ $ $ $ $ + O ",
"e.K K K K K K K K K K K K F F t 1 < 1 * $ $ $ $ $ $ $ $ $ $ + X Y I K K K K K K K K K K K G F t 1 < 1 * $ $ $ $ $ $ $ $ $ $ +   ",
"e.K K K K K K K K K K K G F F t < 1 * $ $ $ $ $ $ $ $ $ $ + + . Y P K K K K K K K K K K G F F t < < * $ $ $ $ $ $ $ $ $ $ + +   ",
"e.K K K K K K K K K K G F G F t 2 * $ $ $ $ $ $ $ $ $ $ + + + . Y P K K K K K K K K K G F G F t 1 * $ $ $ $ $ $ $ $ $ $ + + +   ",
"e.K K K K K K P K K G F F F F t < $ $ $ $ $ $ $ $ $ $ + + $ + . Y P K K K K K K K K G F F F F t < $ $ $ $ $ $ $ $ $ $ + + $ +   ",
"e.P K K K K K K K G F F F F F t < $ $ $ $ $ $ $ $ $ + + + + + . Y P K K K K K K K G F F F F F t < $ $ $ $ $ $ $ $ $ + + + + +   ",
"e.K K K K K K K G F F F F F V t 2 $ $ $ $ $ $ $ $ $ $ + + $ O . Y K K K K K K K G F G F F G V t 1 $ $ $ $ $ $ $ $ + + $ + $ O   ",
"e.K K K K K K G F F F F F S B t 1 $ $ $ $ $ $ $ + + + + $ + X . Y P K K K K K G F G F F F S B t 1 $ $ $ $ $ $ $ + + + + + + X   ",
"e.K K K K K G F F F F F S Z V t 1 $ $ $ $ $ $ + + $ + + + O X . Y P K K K K G F F F F F Z Z V t < $ $ $ $ $ $ $ $ + + + + O O   ",
"e.K K K K G F F G G F S C S V t < $ $ $ $ $ + + $ + + + O O O . Y P K K K G F F G F G Z C Z V t < $ $ $ $ $ + + + + $ + O O X   ",
"e.K K K G F F F F F S C Z C B t < $ $ $ $ + $ + + + + O O O X . Y P K K G F F F F G Z C Z Z B t < $ $ $ $ + + + + + + O O O O   ",
"e.K K G F F F F G Z C C C B B t < $ $ $ + + + $ + + O O O O . . Y P K G F F F F G Z C Z C B B t 1 $ $ $ + + + + + + O O O O X   ",
"q.P G F G F G F S Z Z Z V B B t < $ $ + + $ + + + O O O O O . . Y P G F G F G G S C Z Z B B B t * $ $ $ + $ + $ + O O O X X X   ",
"f Z F F S F S C V V B B B B B w + + + + + + + O X X X O . X . . y Z F S F S S C B V V B B B B r + + + + + + + O X O O X X X X   ",
"f s y t y y y t t r t t t t y w + X         .                 . y f y t y y y r t t t t t t t r O X   .                         "
};
