/* XPM */
static char *result[] = {
/* columns rows colors chars-per-pixel */
"64 64 233 2 ",
"   c #010203",
".  c #02030D",
"X  c #0A0609",
"o  c #180001",
"O  c #06061A",
"+  c #0B1210",
"@  c #161615",
"#  c #3D0000",
"$  c #370A09",
"%  c #320D15",
"&  c #2B2913",
"*  c #02042A",
"=  c #171727",
"-  c #030438",
";  c #15143B",
":  c #281D26",
">  c #1C213F",
",  c #27262A",
"<  c #33302D",
"1  c #2B2C33",
"2  c #373838",
"3  c #460100",
"4  c #4B0000",
"5  c #450909",
"6  c #540000",
"7  c #5D0000",
"8  c #43100C",
"9  c #640300",
"0  c #6F1C00",
"q  c #7C1215",
"w  c #742500",
"e  c #752900",
"r  c #7B2A00",
"t  c #481926",
"y  c #770E26",
"u  c #4F2E35",
"i  c #762732",
"p  c #3D6E3F",
"a  c #574333",
"s  c #734C39",
"d  c #030A46",
"f  c #171949",
"g  c #010856",
"h  c #03165A",
"j  c #17165A",
"k  c #271A4C",
"l  c #1A2754",
"z  c #1E305F",
"x  c #32334E",
"c  c #030B69",
"v  c #061768",
"b  c #0E1473",
"n  c #031779",
"m  c #221C73",
"M  c #0C2263",
"N  c #17276A",
"B  c #152474",
"V  c #27316E",
"C  c #453E50",
"Z  c #37476F",
"A  c #534C4E",
"S  c #59575A",
"D  c #72574D",
"F  c #7D6F42",
"G  c #505371",
"H  c #70576B",
"J  c #65666A",
"K  c #766866",
"L  c #726D79",
"P  c #767578",
"I  c #8F1210",
"U  c #B81B14",
"Y  c #9C2D0E",
"T  c #A23700",
"R  c #A53B00",
"E  c #A93D00",
"W  c #852D31",
"Q  c #B02E2A",
"!  c #AE4100",
"~  c #B24400",
"^  c #897135",
"/  c #A87033",
"(  c #CC5400",
")  c #D15700",
"_  c #D65B00",
"`  c #DA5E00",
"'  c #DE6000",
"]  c #E56400",
"[  c #E96700",
"{  c #F36D00",
"}  c #ED7C0D",
"|  c #F67000",
" . c #F87300",
".. c #F47E0E",
"X. c #A12F40",
"o. c #904F58",
"O. c #886950",
"+. c #AD7A52",
"@. c #9B5761",
"#. c #906F6E",
"$. c #AD6E78",
"%. c #C96B62",
"&. c #F7830E",
"*. c #F68010",
"=. c #FE8510",
"-. c #A48959",
";. c #988869",
":. c #A6886D",
">. c #C49754",
",. c #D08C67",
"<. c #F09D65",
"1. c #D0AB76",
"2. c #EEB774",
"3. c #E5C578",
"4. c #031987",
"5. c #10168D",
"6. c #011B94",
"7. c #142986",
"8. c #042699",
"9. c #102D93",
"0. c #2C338C",
"q. c #273598",
"w. c #051DA2",
"e. c #041DB2",
"r. c #0527A7",
"t. c #172AA6",
"y. c #1936A6",
"u. c #1730AF",
"i. c #0728B7",
"p. c #0234B6",
"a. c #1638B8",
"s. c #2B3BB1",
"d. c #31448A",
"f. c #344893",
"g. c #1B46BB",
"h. c #2D46AA",
"j. c #4F558E",
"k. c #516496",
"l. c #6D748B",
"z. c #6A7796",
"x. c #4C56B8",
"c. c #5567A9",
"v. c #6971AA",
"b. c #0C27C2",
"n. c #0438C8",
"m. c #1938C6",
"M. c #093AD6",
"N. c #183CD7",
"B. c #2638CB",
"V. c #0D3DE3",
"C. c #1B47C9",
"Z. c #0945D8",
"A. c #1647D8",
"S. c #2843CA",
"D. c #0947E5",
"F. c #1548E4",
"G. c #1253EB",
"H. c #2A4AE5",
"J. c #5C77DB",
"K. c #6A77C9",
"L. c #89718F",
"P. c #AA7B88",
"I. c #C27C8C",
"U. c #7B8588",
"Y. c #7286AF",
"T. c #7B86B6",
"R. c #7385C7",
"E. c #728DE6",
"W. c #888786",
"Q. c #928E98",
"!. c #A9928B",
"~. c #A9969A",
"^. c #BCA093",
"/. c #9A99A5",
"(. c #9092B6",
"). c #A99CB8",
"_. c #99A6B5",
"`. c #A6A6A9",
"'. c #B2ADB2",
"]. c #B8B7B8",
"[. c #DD948C",
"{. c #D3B08B",
"}. c #F2B391",
"|. c #C29FA7",
" X c #C7B0B1",
".X c #F0B4B4",
"XX c #B6C2B4",
"oX c #D3C09F",
"OX c #F5CE91",
"+X c #D1C8B3",
"@X c #F8CFB1",
"#X c #F8D8B3",
"$X c #FFE7B2",
"%X c #8A90D1",
"&X c #AA98C5",
"*X c #9CA8C8",
"=X c #BAB7C7",
"-X c #A8B1D5",
";X c #9BAEEE",
":X c #AAB7E4",
">X c #CABBCA",
",X c #C2B3E5",
"<X c #B3C5D2",
"1X c #BBC6DA",
"2X c #B9C9F0",
"3X c #BDEBFA",
"4X c #C6C8CA",
"5X c #CFCED7",
"6X c #D5CFD0",
"7X c #C8D5DA",
"8X c #D8D8DA",
"9X c #F9DACA",
"0X c #F3D2D5",
"qX c #D0E8CF",
"wX c #F6EAD3",
"eX c #FFFBD9",
"rX c #D9DAE3",
"tX c #D3D0EC",
"yX c #CAD7FB",
"uX c #E2DCE9",
"iX c #E7DCFB",
"pX c #DBE9E9",
"aX c #D1F1EC",
"sX c #DBE7FF",
"dX c #EAE8EA",
"fX c #F0F3E7",
"gX c #EBEAF4",
"hX c #FBEDFB",
"jX c #EDF5F8",
"kX c #F5F4FB",
"lX c #FDF5FE",
"zX c #F5FDFB",
"xX c #FDFCFF",
/* pixels */
"e e e w e w w e w w e e w w 6 7 *.=.=.=.=.=.=.=.=.=.=.=.=.&.~ ! e w e w e w w w w w w w w w 6 7 *.=.=.=.=.=.=.=.=.=.=.=.=.*.~ ! ",
"w w w e w 9 9 9 9 9 9 9 9 9 7 7 *.| { | { { { { { { { | { | ' ! e w e e 0 7 9 9 9 9 9 9 9 9 7 7 *.| { | { { | { | { { { | | ' ! ",
"e w e 0 9 9 9 9 9 9 9 9 9 9 7 3 ..| { { { { { { { { { { | [ ' R e w e 0 9 9 9 9 9 9 9 9 9 9 7 4 ..| { { { { { { { { { { | [ ' ! ",
"w e 0 9 9 9 9 9 9 9 9 9 9 7 7 3 ..| { { { { | { { { { { [ [ ' ! w e 0 7 9 9 9 9 9 9 9 9 9 9 6 3 ..| { { { { { { { { { { ] ] ' R ",
"e 0 9 9 9 9 9 9 9 9 9 9 7 7 7 3 } | { { { { { { { { | [ ' [ ' R r w 9 9 9 9 9 9 9 9 9 9 7 9 7 4 ..| { { { { { { { { | [ ] ] ] ! ",
"w 9 9 9 9 9 9 9 9 9 9 7 7 9 7 3 *.| { { { { { { { { [ ] ] [ ' R w 9 9 9 9 9 9 9 9 9 9 7 7 7 6 3 ..| { { { { { { { { [ ] ] ] ' R ",
"w 9 9 9 9 9 9 9 9 9 7 7 7 7 7 3 *.{ { { | { { { { [ ] ] ] ] ' ! w 9 9 9 9 9 9 9 9 9 7 7 7 9 7 4 ..| { { { { { { { [ ] ] ] ] ] R ",
"w 9 9 9 9 9 9 9 9 7 7 9 7 9 6 3 *.| { { { { { { [ ' [ ] ] [ _ R e 9 9 9 9 9 9 9 9 9 7 7 7 7 6 3 ..| { { { { { { ] ] ] [ ] ] ) R ",
"e 9 9 9 9 9 9 9 7 7 7 7 7 7 4 3 *.{ [ { { { | [ ] ] ] ] ] ' ) R w 9 9 9 9 9 9 9 7 7 9 7 9 7 4 3 ..| { { { { { [ ] ] ] ] ] ' ( R ",
"w 9 9 9 9 9 9 7 9 7 7 7 7 6 4 3 *.| { | { { [ ' ] ] ] ' ' ' ) R w 9 9 9 9 9 9 9 7 7 7 7 7 6 4 3 ..| { { { { [ ] ] ] ] ] ' ' ) R ",
"w 9 9 9 9 9 7 7 7 7 9 7 6 6 4 3 *.| { { { [ ] ' ] ] V d.h.y.y.q.q.m c.9 9 9 7 7 7 7 7 7 6 6 4 3 ..| { { { [ ] ] [ ] [ ' _ ` ) R ",
"e 9 9 9 9 7 7 7 7 7 7 6 6 6 6 3 *.| { { [ ] ] _.c.c.9.8.r.p.p.i.t.q.q.K.k.2X7 7 9 7 7 6 6 6 4 3 ..| { { [ ] [ ] ] ] ' _ ` ` ( R ",
"w 9 9 9 7 7 7 7 7 7 6 6 6 6 3 3 *.{ [ [ ] ] 2XV n 8.H.A.M.F.G.Z.N.B.i.n v R.:X<X7 7 6 6 6 6 4 3 ..| { [ ] ] ] ] ] ` _ ` ` ( ( R ",
"w 9 9 9 9 7 7 9 7 7 6 6 6 4 4 3 *.| ] ] [ [ l d.x.g.a.m.M.V.n.V.N.i.r.8.y.7.v N yX6 6 6 6 6 3 3 } | ] ] ] ] ] ] ' ` ` ` ( ( ( R ",
"6 7 7 6 7 7 7 7 3 4 6 3 4 3 3 3 ! ' ] ' ' ] ] _ Y.g n 6.a.B.N.A.8.8.g.g.6.9.s.h.B 2X6 4 3 4 3 3 ! ' ] ] ] ] ] ) ( ) ( ( ( ( ( R ",
"7 7 4 3 3 3 3 3 3 3 3 3 3 3 3 3 R ! ! R T ! R R R ;Xh n 6.w.i.m.8.n h.;X8.i.S.a.u.q.;X4 3 3 3 3 R ! R R R R R R R R R R R R T T ",
"*.*.} *...................} ~ R I e e e e w w =X(.K.n 8.8.u.e.m.w.x.&XtXf.8.p.Z.N.t.f.-X*.} ! R r e e e r e e e w w r w w w 7 7 ",
"=.| | | | | | | | | | { |  .' E e e e e 0 7 iXV g 4.6.g.g.C.N.e.e.J.,X&Xx.r.r.Z.V.H.n V yX1X<XpXe w w e e 9 9 9 9 9 9 9 9 9 7 4 ",
"=.{ { { { { { { { { { { { ] ] R e e e 0 9 9 h n a.Z.D.D.Z.Z.M.b.Z.n.s.s.B.e.8.r.V.N.r.c v v M k.w w e 0 9 9 9 9 9 9 9 9 9 9 7 3 ",
"=.| { { { { { { { { { { [ ] ] R e e 0 7 1XV v y.m.Z.D.D.Z.A.Z.M.M.Z.m.w.5.u.a.r.N.V.N.a.4.f.9.V G e 0 9 9 9 9 9 9 9 9 9 9 7 7 # ",
"=.{ { { { { { { { { { [ ] ] ] R e 0 9 6 2X- 7.7.u.r.8.6.8.p.b.V.G.p.y.K.%Xf.8.n.N.N.N.m.6.q.R.G . A 9 9 9 9 9 9 9 9 9 9 7 7 7 # ",
"=.{ { { { { { { { { [ ] ] ] ] R e 9 9 aXY.h M n c c 9.n 4.r.A.M.M.g.R.sXjXY.h.A.N.V.N.u.4.B (.Q.C C W.7X9 9 9 9 9 9 9 7 7 7 7 # ",
"=.| { { { { { { { [ ] ] ] 8X] R w 9 9 U.d B B v g g 5.6.r.i.H.V.m.E.3XqXfXaXE.a.n.D.N.a.v z G =XpXxX= P 9 9 9 9 9 9 7 7 7 7 7 # ",
"=.{ { { { { { { [ ] ] ] ] @ S /.Q.(.9 Y.h M h d d j n a.C.N.B.B.n Y.3Xp qXzX;X4.A.M.N.m.h z.iXkXdXzXQ.6X9 9 9 9 9 7 7 9 7 7 7 # ",
"=.| { { { { | [ ] ] ] pX1 W.8XuXiXtX,XG - l :XsXT.g y.Z.C.a.h.v.A  XqX+ qXzX(.h g.A.g.n d l.5XxXfXgXzXP S 9 9 9 7 7 7 7 7 7 4 # ",
"=.{ { { { { [ ] ] ] ].S 2 8XkXlXhXhX_.z.k.k.xX>XG v C.C.i.9.0.~.|.{.;.& qXzX2Xk.9.y.4.7.-X_.iXlXkXxXxXS 2 9 9 7 9 7 7 7 7 6 6 # ",
"=.{ { { { [ ] ] ] ] P   4XkXgXlXlXxX_.4XtX/.0XS : V q.a.9.v >  X9X{.^ F dXhXjX2Xb n v c.1X7XyXgXjX`.xXS 2 9 7 7 7 7 9 7 6 6 4 # ",
"=.{ { { [ ] ] ] ] ] P , xXdXxXkXfXdXrX7XjX+XO.+.:.L.k j j k u ^.#X$XOX3.0XlXlXrXf f T.*X. 7XrXiXrX. `.J x 7 7 7 7 7 7 6 6 6 6 # ",
"=.| { [ ] ] [ ] ] ` J , xX8XlXgXlXfX<XdXfX+X#XOX2.,.@.O.#.a o ;.oX#X$X$X}.>./ +.;.'.hX XX 8X_.XXkXzX= L 7 7 9 7 7 7 6 6 6 6 4 # ",
"*.| [ ] ] [ ] ] ] ` 8X`.A 1 Q.gXzXzX7X7X6XQ.:.>.}.OX2.}.{.1.:.8 K {.#XOXOX2.<.>.$ % ~.` ~.2 @ S '.'./.rX7 7 7 9 7 6 6 6 6 3 4 # ",
"~ _ ] ] ] ' ] _ ( ( uXJ . , /.8X4X/.L (.>X'. XF ^ 2.1.}.{.,.L.; C L #.1.3.3.<.>.D S `.( ) K S U.XX].6 6 7 7 7 7 4 4 6 4 3 3 3 # ",
"! ! R R R R R R R R P   1 l.`./.S   . A ).xXxXA u -.O.D #.G c 5.z - & O.3.3.>.-.R R R R R ! R T 9 6 4 4 3 3 3 3 3 3 3 3 3 3 3 3 ",
"e e w e e e w w r 0 P = 6XO   X X   8XJ 1 zXzXA l.pXO f m t.a.S.0.G x O 0XeXeXeXr w w w e w 6 9 } *.........................E E ",
"w w w e 0 9 9 9 9 S S =X8X'.].J < +XgXpXW.1 zXG O z.sX0.t.B.m.9.%X,X(.= rX9 9 9 9 9 9 9 9 9 7 7 *. .|  .| { | | | | | { |  .` ~ ",
"w w e 0 9 9 9 9 9 : H 0XH 6XuXW., xXxX/.2 . z.V - l v.N 5.g.h.Y.6X9X].= rX9 9 9 9 9 9 9 9 9 7 4 ..{ { { { { { { { { { { { [ ] R ",
"w e 0 9 9 9 9 9  XA o.P.t |.6XJ + uX=X, + = * d d - ; - 9.h.d.<XoXOX!.S 7 9 9 9 9 9 9 9 9 9 6 3 ..{ { { { { { { { { { { [ ] ] R ",
"e 0 9 9 9 9 9 dXX  XP.t i |.).J , >X= . + 1 > f ; * * - 5.q.f.*XoX-.!.9 9 9 9 9 9 9 9 9 7 9 7 3 .. .{ { { { { { { | { [ ] [ ] R ",
"w 9 9 9 9 9 9 pXX !.P.% u o ~.3 4X. O .     O * ; f > l m q.f.- a oX9 9 9 9 9 9 9 9 9 7 7 7 7 3 .. .{ { { { { { { { [ ] ] ] ] R ",
"e 9 9 9 9 9 9 dX   XP.% % !.7 3 ..].'.=X].`.].4XL . O * g b 5.0.x _.9 9 9 9 9 9 9 9 7 7 7 7 7 3 .. .{ { { { { { { [ ] ] ] ] ' R ",
"w 9 9 9 9 9 9 9 L L u 8 #.9 6 3 .. .{ | { { { | <XJ l.l.v.j.c 0.M j.1X9 9 9 9 9 9 7 7 7 7 9 7 3 ..{ { { { { { { ] ] ] [ ] ] _ R ",
"w 9 9 9 9 9 9 9 7 A @ K 7 7 4 3 ..{ { { { { { [ ] ] [ ] ] 7XV j.0.B V yXyX9 9 9 7 7 7 9 9 7 3 3 ..| { { { { | [ ] ] ] ] ] ' ) R ",
"w 9 9 9 9 9 9 9 7 9 9 7 7 6 6 3 ..| { { { { [ ] ] ] ] ] ` _ ) R j.B f.c - -X9 7 7 7 7 7 7 6 4 3 ..| { { { { [ ] ] ] ] ] ` ` ) R ",
"w 9 9 9 9 9 7 7 7 7 7 7 6 6 3 3 ..| { { { [ ] ] ] ] ] ' _ ` ) R w z.v s.B m x @ , ].7 7 6 6 6  Xi y 0X{ { [ ] ] [ ] [ ' _ ` ) R ",
"w 9 9 9 9 7 7 7 7 7 7 6 6 6 4 3 ..| { { [ ] ] ] ] ] ' _ ` ` ( T w 7Xv.0.0.h z U.  6X7 6 7 $.$.X.y W I.{ [ ] ] ] ] ] ' _ ` ` ( R ",
"w 9 9 9 7 7 7 7 7 7 6 6 6 6 3 3 ..| { [ ] ] [ ] ] ` _ ` _ ( ( R w 9 iXd j Z Y.zX+ /.tX0X[.I I I X.I.W |.] ] ] ] ] ` _ ` ` ( ( R ",
"w 9 9 7 9 7 7 9 7 7 6 6 6 6 3 3 }  .] ] ] ] ] ] ' _ ` ` ( ( ( R w 9 5X* O _.zX8X+ P ~.$.I Q U Q @.0Xt P.] ] [ ] ' ` ` _ ) ( ( R ",
"6 6 7 7 7 7 7 6 4 4 4 6 3 3 3 3 ~ ` ] ] ] ] ] ) ( _ ( ( ( ( ( T 6 6 6Xo `.jXxX0X$ @XwX}.Q Y I %.9XX >X] ] ' ] ) ) ) ) ( ( ( ( R ",
"7 7 4 3 3 3 3 3 3 3 3 3 3 3 3 4 E E R R R R R R R R R R R R R T 9 7 3 >X< ~..Xi i <.#XOX,.%..X[.< XXR R R R R R R R R R R T T T ",
"*.*.*.....................} ! R r e w w e w w w w r w w e w 6 7 ..*.....W.#.W q Q [.,.+.9XeX^.K W.r w w r r w w w w r w w w 7 7 ",
"=. .| | | { | | | | | { | | ' ! e w w e 0 9 9 9 9 9 9 9 9 9 7 7 *. .{ { { D 8 Q I }.+.F oX6X2 W.r w w r 0 9 9 9 9 9 9 9 9 9 7 6 ",
"=.{ { { { { { { { { { { { [ ] R e w e 0 9 9 9 9 9 9 9 9 9 9 7 4 ..| [ { { D 5 W I }.eX{.    '.R e w e 0 9 9 9 9 9 9 9 9 9 9 7 # ",
"=.{ { { { { { | { { { { [ ] ] R w e 0 9 9 9 9 9 9 9 9 9 9 7 7 3 ..| { { [ A u fX0Xs o a fXqX] R w e 0 9 9 9 9 9 9 9 9 9 9 7 7 # ",
"=.{ { { { { { { { { { [ ] ] ] R r 0 9 9 9 9 9 9 9 9 9 9 7 9 7 3 .. .{ { { 4X#.a s #.!.XX] [ ] R e 0 9 9 9 9 9 9 9 9 9 9 7 7 7 # ",
"=.{ { { { { { { { { [ ] ] ] ] R w 9 9 9 9 9 9 9 9 9 9 7 7 7 7 3 ..| { { { | 4XA A 0X[ ] ] ] ] R w 9 9 9 9 9 9 9 9 9 9 7 7 9 7 # ",
"=.| { { { { { { { [ ] ] ] ] ] R w 9 9 9 9 9 9 9 9 9 9 7 7 7 7 3 ..{ { { { { { { { [ ] ] ] ] ] R w 9 9 9 9 9 9 9 9 9 7 7 7 7 7 # ",
"=.{ { { { { { { [ ] ] ] ] ] _ R r 9 9 9 9 9 9 9 9 9 7 7 7 9 6 3 ..{ { { { { { { [ ] ] [ ] ] _ R w 9 9 9 9 9 9 9 9 7 7 9 7 9 6 # ",
"=.{ { { { { { [ ] ] ] ] ] ' ) R w 9 9 9 9 9 9 9 7 7 7 7 7 9 4 3 .. .{ { { { { [ ] ] [ ] ] ' ( R e 9 9 9 9 9 9 9 7 7 7 7 7 7 4 # ",
"=.{ { { { { [ ] ] ] [ ] ' _ ) R e 9 9 9 9 9 9 7 7 9 7 7 7 6 4 3 ..{ { { { { [ ] ] ] ] ] ` _ ) R w 9 9 9 9 9 9 9 9 7 7 7 7 6 6 # ",
"=.| { { { [ ] ] ] ] ] ' ) ' ) R e 9 9 9 9 9 7 7 9 7 7 7 6 6 6 3 ..| { { { [ ] ] [ ] [ ` ` ` ) T w 9 9 9 9 9 7 7 7 7 9 7 6 6 4 # ",
"=.{ { { [ ] ] ] [ ] ' _ ' ' ( T w 9 9 9 9 9 7 7 7 7 7 6 6 6 4 3 .. .{ { [ ] ] ] ] [ ` _ ` ` ) R w 9 9 9 9 7 7 7 7 7 7 6 6 6 4 # ",
"=.{ { [ ] ] ] ] ' ' _ _ _ ( ( ! w 9 9 9 7 7 7 7 7 7 6 6 6 6 3 3 ..| { [ ] ] ] ] ] ` ` ` _ ( ( R e 9 9 9 7 7 7 7 7 7 6 6 6 6 4 # ",
"&.| [ ] [ [ [ [ ' ' ' ' ( ( ( T w 9 9 7 7 9 7 9 7 6 6 6 6 6 3 3 .. .] ] ] [ ] [ ' _ ` ` ( ( ( R w 9 9 9 7 9 7 9 7 6 6 6 6 4 4 # ",
"~ _ ' ' ' ' ' _ ( ) ( ( ~ ( ( T 7 7 7 7 7 7 7 6 6 4 4 6 3 4 3 3 E ` ] ] ' ] ] ) ( ) ) ( ( ( ( T 6 7 7 7 7 7 7 6 4 6 6 4 4 4 4 # ",
"! ! ! ! ! R R R R R R ! ! R R T 6 6 # # # # # # # # # # # # # 3 E ~ E R R E R R R R R R R R E T 6 6 # # # # # # # # # # # # # # "
};
